<?xml version="1.0" encoding="utf-8"?>
<!-- Generator: Adobe Illustrator 24.0.2, SVG Export Plug-In . SVG Version: 6.00 Build 0)  -->
<svg version="1.1" id="svg1936" xmlns:svg="http://www.w3.org/2000/svg"
	 xmlns="http://www.w3.org/2000/svg" xmlns:xlink="http://www.w3.org/1999/xlink" x="0px" y="0px" viewBox="0 0 120 40"
	 style="enable-background:new 0 0 120 40;" xml:space="preserve">
<style type="text/css">
	.st0{fill:#C4B4FF;}
</style>
<g>
	<path id="path8" class="st0" d="M74.4,32.1c-7,5.1-17.1,7.9-25.8,7.9c-12.2,0-23.2-4.5-31.5-12c-0.7-0.6-0.1-1.4,0.7-0.9
		c9,5.2,20.1,8.3,31.5,8.3c7.7,0,16.2-1.6,24-4.9C74.6,30,75.6,31.2,74.4,32.1"/>
	<path id="path10" class="st0" d="M77.3,28.8c-0.9-1.1-5.9-0.5-8.1-0.3c-0.7,0.1-0.8-0.5-0.2-0.9c4-2.8,10.5-2,11.3-1.1
		c0.8,1-0.2,7.5-3.9,10.6c-0.6,0.5-1.1,0.2-0.9-0.4C76.3,34.6,78.2,29.9,77.3,28.8"/>
	<path id="path12" class="st0" d="M69.4,7.8V5c0-0.4,0.3-0.7,0.7-0.7h12.2C82.7,4.3,83,4.6,83,5v2.3c0,0.4-0.3,0.9-0.9,1.7l-6.3,9
		c2.3-0.1,4.8,0.3,7,1.5c0.5,0.3,0.6,0.7,0.6,1.1v2.9c0,0.4-0.5,0.9-0.9,0.6c-3.7-2-8.7-2.2-12.9,0c-0.4,0.2-0.9-0.2-0.9-0.6v-2.7
		c0-0.5,0-1.2,0.5-1.9l7.3-10.5H70C69.7,8.4,69.4,8.2,69.4,7.8"/>
	<path id="path14" class="st0" d="M24.8,24.8h-3.7c-0.3,0-0.6-0.3-0.7-0.6V5.1c0-0.4,0.3-0.7,0.7-0.7h3.5c0.4,0,0.6,0.3,0.7,0.6v2.5
		h0.1C26.3,5.1,28,4,30.3,4s3.8,1.1,4.8,3.5C36,5.1,38,4,40.2,4c1.6,0,3.3,0.6,4.3,2.1c1.2,1.6,0.9,3.9,0.9,6v12
		c0,0.4-0.3,0.7-0.7,0.7H41c-0.4,0-0.7-0.3-0.7-0.7V14c0-0.8,0.1-2.8-0.1-3.6c-0.3-1.3-1.1-1.6-2.2-1.6c-0.9,0-1.8,0.6-2.2,1.6
		S35.5,13,35.5,14v10.1c0,0.4-0.3,0.7-0.7,0.7H31c-0.4,0-0.7-0.3-0.7-0.7V14c0-2.1,0.3-5.3-2.3-5.3c-2.7,0-2.6,3.1-2.6,5.3v10.1
		C25.5,24.5,25.2,24.8,24.8,24.8"/>
	<path id="path16" class="st0" d="M93.5,4C99,4,102,8.7,102,14.7c0,5.8-3.3,10.4-8.5,10.4c-5.4,0-8.3-4.7-8.3-10.6
		C85.1,8.6,88.1,4,93.5,4 M93.5,7.9c-2.7,0-2.9,3.7-2.9,6.1s0,7.3,2.9,7.3s3-4,3-6.5c0-1.6-0.1-3.5-0.6-5
		C95.5,8.4,94.7,7.9,93.5,7.9"/>
	<path id="path18" class="st0" d="M109.1,24.8h-3.7c-0.4,0-0.7-0.3-0.7-0.7V5c0-0.3,0.3-0.6,0.7-0.6h3.5c0.3,0,0.6,0.2,0.7,0.5v3
		h0.1c1-2.6,2.5-3.9,5-3.9c1.7,0,3.3,0.6,4.3,2.3c1,1.5,1,4.1,1,5.9v12c-0.1,0.3-0.3,0.6-0.7,0.6h-3.7c-0.3,0-0.6-0.3-0.7-0.6V13.8
		c0-2.1,0.2-5.1-2.3-5.1c-0.9,0-1.7,0.6-2.2,1.5c-0.5,1.2-0.6,2.3-0.6,3.6v10.3C109.8,24.5,109.5,24.8,109.1,24.8"/>
	<g id="use28" transform="translate(244.36719)">
		<path id="path30" class="st0" d="M-185.2,15.7v-0.8c-2.7,0-5.5,0.6-5.5,3.7c0,1.6,0.8,2.7,2.3,2.7c1,0,2-0.6,2.6-1.7
			C-185.1,18.3-185.2,17.1-185.2,15.7 M-181.4,24.7c-0.2,0.2-0.6,0.2-0.9,0.1c-1.2-1-1.5-1.5-2.1-2.5c-2,2.1-3.5,2.7-6.1,2.7
			c-3.1,0-5.6-1.9-5.6-5.8c0-3,1.6-5.1,4-6.1c2-0.9,4.8-1,7-1.3v-0.4c0-0.9,0.1-1.9-0.5-2.7c-0.5-0.7-1.3-1-2.1-1
			c-1.4,0-2.7,0.7-3,2.2c-0.1,0.3-0.3,0.7-0.6,0.7l-3.6-0.4c-0.3-0.1-0.6-0.3-0.6-0.8c0.8-4.4,4.7-5.7,8.3-5.7
			c1.8,0,4.2,0.5,5.6,1.9c1.8,1.7,1.6,3.9,1.6,6.4v5.8c0,1.7,0.7,2.5,1.4,3.5c0.2,0.3,0.3,0.7,0,1
			C-179.3,22.9-180.7,24.1-181.4,24.7L-181.4,24.7"/>
	</g>
	<path id="path30_1_" class="st0" d="M10.9,15.7v-0.8c-2.7,0-5.5,0.6-5.5,3.7c0,1.6,0.8,2.7,2.3,2.7c1,0,2-0.6,2.6-1.7
		C11,18.3,10.9,17.1,10.9,15.7 M14.7,24.7c-0.3,0.2-0.6,0.2-0.9,0.1c-1.2-1-1.5-1.5-2.1-2.5c-2,2.1-3.5,2.7-6.1,2.7
		C2.5,25,0,23.1,0,19.2c0-3,1.6-5.1,4-6.1c2-0.9,4.8-1,7-1.3v-0.4c0-0.9,0.1-1.9-0.5-2.7c-0.5-0.7-1.3-1-2.1-1c-1.4,0-2.7,0.7-3,2.2
		c0,0.4-0.3,0.7-0.6,0.8l-3.6-0.4C0.9,10.2,0.5,10,0.6,9.5c0.9-4.4,4.8-5.7,8.3-5.7c1.8,0,4.2,0.5,5.6,1.9c1.8,1.7,1.6,3.9,1.6,6.4
		v5.8c0,1.7,0.7,2.5,1.4,3.5c0.2,0.3,0.3,0.7,0,1C16.8,22.9,15.4,24.1,14.7,24.7L14.7,24.7"/>
</g>
</svg>
