<?xml version="1.0" encoding="utf-8"?>
<!-- Generator: Adobe Illustrator 24.0.2, SVG Export Plug-In . SVG Version: 6.00 Build 0)  -->
<svg version="1.1"
	 id="svg8" inkscape:version="0.92.3 (2405546, 2018-03-11)" sodipodi:docname="Lazada (2019) alternate.svg" xmlns:cc="http://creativecommons.org/ns#" xmlns:dc="http://purl.org/dc/elements/1.1/" xmlns:inkscape="http://www.inkscape.org/namespaces/inkscape" xmlns:rdf="http://www.w3.org/1999/02/22-rdf-syntax-ns#" xmlns:sodipodi="http://sodipodi.sourceforge.net/DTD/sodipodi-0.dtd" xmlns:svg="http://www.w3.org/2000/svg"
	 xmlns="http://www.w3.org/2000/svg" xmlns:xlink="http://www.w3.org/1999/xlink" x="0px" y="0px" viewBox="0 0 150 40"
	 style="enable-background:new 0 0 150 40;" xml:space="preserve">
<style type="text/css">
	.st0{fill:#C4B4FF;}
	.st1{fill:#DDD6FF;}
	.st2{fill:#A684FF;}
</style>
<sodipodi:namedview  bordercolor="#666666" borderopacity="1.0" fit-margin-bottom="0" fit-margin-left="0" fit-margin-right="0" fit-margin-top="0" id="base" inkscape:current-layer="layer1-5" inkscape:cx="1312.4877" inkscape:cy="-247.50916" inkscape:document-units="mm" inkscape:pageopacity="0.0" inkscape:pageshadow="2" inkscape:window-height="745" inkscape:window-maximized="1" inkscape:window-width="1366" inkscape:window-x="-8" inkscape:window-y="-8" inkscape:zoom="0.175" pagecolor="#ffffff" showgrid="false" showguides="false">
	</sodipodi:namedview>
<g id="layer1" transform="translate(805.60654,100.39806)" inkscape:groupmode="layer" inkscape:label="Layer 1">
	<g id="g975">
		<g id="layer1-5" transform="translate(-482.6338,-315.5882)" inkscape:label="Layer 1">
			<g id="layer1-2" transform="matrix(0.43272125,0,0,0.43272125,12.094952,193.20654)" inkscape:label="Layer 1">
				<g id="g1006" transform="matrix(0.26296827,0,0,0.26296827,-799.54693,61.582129)">
					<g id="g35" transform="matrix(12.509277,0,0,12.509277,438.06846,8.29825)">
						<path id="path33" inkscape:connector-curvature="0" class="st0" d="M15.8,0.1h2.4v11.4h4.1v2.3h-6.4L15.8,0.1"/>
					</g>
					<g id="g41" transform="matrix(12.509277,0,0,12.509277,438.06846,8.29825)">
						<path id="path39" inkscape:connector-curvature="0" class="st0" d="M27.7,3.5c1.3,0,2.4,0.6,3.2,1.5V3.8h2.2v10.1H31v-1.3
							c-0.8,1-2,1.6-3.2,1.5c-2.8,0-4.9-2.4-4.9-5.2C22.9,5.9,25,3.5,27.7,3.5 M28.1,5.6c-1.8,0-3,1.4-3,3.2s1.2,3.2,3,3.2
							c1.8,0,3-1.4,3-3.2S29.9,5.6,28.1,5.6"/>
					</g>
					<g id="g47" transform="matrix(12.509277,0,0,12.509277,438.06846,8.29825)">
						<path id="path45" inkscape:connector-curvature="0" class="st0" d="M34.9,12.1l5.3-6.3H35v-2h8v1.8l-5.3,6.3h5.4v2h-8.2
							L34.9,12.1"/>
					</g>
					<g id="g53" transform="matrix(12.509277,0,0,12.509277,438.06846,8.29825)">
						<path id="path51" inkscape:connector-curvature="0" class="st0" d="M48.8,3.5c1.3,0,2.4,0.6,3.2,1.5V3.8h2.2v10.1H52v-1.3
							c-0.8,1-2,1.6-3.2,1.5c-2.8,0-4.8-2.4-4.8-5.2C43.9,5.9,46,3.5,48.8,3.5 M49.2,5.6c-1.8,0-3,1.4-3,3.2s1.2,3.2,3,3.2
							c1.8,0,3-1.4,3-3.2S51,5.6,49.2,5.6"/>
					</g>
					<g id="g59" transform="matrix(12.509277,0,0,12.509277,438.06846,8.29825)">
						<path id="path57" inkscape:connector-curvature="0" class="st0" d="M60.5,3.5c1.3,0,2.4,0.6,3.2,1.5v-5.8h2.2v14.5h-2.2v-1.3
							c-0.8,1-2,1.6-3.2,1.5c-2.8,0-4.9-2.4-4.9-5.2C55.7,5.9,57.8,3.5,60.5,3.5 M60.9,5.6c-1.8,0-3,1.4-3,3.2s1.2,3.2,3,3.2
							s3-1.4,3-3.2S62.7,5.6,60.9,5.6"/>
					</g>
					<g id="g65" transform="matrix(12.509277,0,0,12.509277,438.06846,8.29825)">
						<path id="path63" inkscape:connector-curvature="0" class="st0" d="M72.3,3.5c1.3,0,2.4,0.6,3.2,1.5V3.8h2.2v10.1h-2.2v-1.3
							c-0.8,1-2,1.6-3.2,1.5c-2.8,0-4.9-2.4-4.9-5.2C67.4,5.9,69.5,3.5,72.3,3.5 M72.7,5.6c-1.8,0-3,1.4-3,3.2s1.2,3.2,3,3.2
							s3-1.4,3-3.2S74.4,5.6,72.7,5.6"/>
					</g>
				</g>
				<g id="g942" transform="matrix(1.3719271,0,0,1.3719271,169.4857,-38.493576)">
					<g id="g71" transform="matrix(3.3097462,0,0,3.3097462,-688.02908,65.088537)">
						<path id="path69" inkscape:connector-curvature="0" class="st1" d="M12.5,20c-0.2,0-0.3,0-0.5-0.1C10.7,19.2,1.2,13.1,0.8,13
							c-0.3-0.1-0.5-0.4-0.5-0.7V3.8c0-0.3,0.2-0.6,0.4-0.8l0.1,0c0.9-0.6,4-2.5,4.5-2.7c0.1-0.1,0.3-0.1,0.4-0.1
							c0.1,0,0.2,0,0.3,0.1c0,0,4.3,2.8,5,3.1c0.5,0.2,1,0.3,1.5,0.3c0.6,0,1.2-0.1,1.7-0.4c0.7-0.3,4.8-3,4.8-3
							c0.1-0.1,0.2-0.1,0.3-0.1c0.1,0,0.3,0,0.4,0.1c0.6,0.3,4.4,2.7,4.6,2.8c0.3,0.2,0.4,0.5,0.4,0.8v8.4c0,0.3-0.2,0.6-0.5,0.7
							c-0.4,0.2-9.9,6.2-11.2,6.9C12.9,20,12.7,20,12.5,20"/>
					</g>
					<g id="g79" transform="matrix(3.3097462,0,0,3.3097462,-688.02908,65.088537)">
						<path id="path77" inkscape:connector-curvature="0" class="st0" d="M12.5,20L12.5,20c0.2,0,0.4,0,0.6-0.1
							c1.3-0.7,10.9-6.8,11.2-6.9c0.3-0.1,0.5-0.4,0.5-0.7V3.8c0-0.1,0-0.3-0.1-0.4l-12.2,6.7V20"/>
					</g>
					<g id="g970" transform="matrix(-3.2744849,0,0,3.2744849,-467.18522,65.934126)">
						<path id="path968" inkscape:connector-curvature="0" class="st2" d="M54.9,19.9L54.9,19.9c0.2,0,0.4,0,0.6-0.1
							c1.3-0.7,10.9-6.8,11.2-6.9c0.3-0.1,0.5-0.4,0.5-0.7V3.7c0-0.1,0-0.3-0.1-0.4L54.9,9.9L54.9,19.9"/>
					</g>
				</g>
			</g>
		</g>
	</g>
</g>
</svg>
