<?xml version="1.0" encoding="utf-8"?>
<!-- Generator: Adobe Illustrator 24.0.2, SVG Export Plug-In . SVG Version: 6.00 Build 0)  -->
<svg version="1.1" id="Laag_1" xmlns="http://www.w3.org/2000/svg" xmlns:xlink="http://www.w3.org/1999/xlink" x="0px" y="0px"
	 viewBox="0 0 116 34" style="enable-background:new 0 0 116 34;" xml:space="preserve">
<style type="text/css">
	.st0{fill:#C4B4FF;}
	.st1{fill:#A684FF;}
	.st2{fill:#FFFFFE;}
</style>
<g>
	<path class="st0" d="M13.1,1c0.2,0,0.3,0.1,0.6,0.2c-1.4,0.6-2.8,2.1-3.5,5.3L7.6,7.3C8.5,5,10.1,1,13.1,1z M14.4,2.2
		c0.2,0.7,0.5,1.5,0.5,2.8c0,0.1,0,0.1,0,0.2l-3.4,0.9C12.2,3.7,13.4,2.7,14.4,2.2z M17.4,4.3l-1.5,0.5c0-0.1,0-0.2,0-0.3
		c0-1-0.1-1.9-0.3-2.6C16.4,2.1,17.1,3.1,17.4,4.3z M25,6.1c0-0.1-0.1-0.2-0.2-0.2c-0.2,0-2.7-0.2-2.7-0.2S20.3,4,20,3.8
		c-0.2-0.2-0.6-0.1-0.7-0.1c0,0-0.3,0.1-0.9,0.3c-0.6-1.6-1.6-3.1-3.4-3.1h-0.1c-0.3-0.7-1-0.9-1.6-0.9C9.1-0.1,7,5.1,6.3,7.8
		C5.4,8,4.5,8.4,3.4,8.8C2.5,9,2.5,9.1,2.4,10C2.3,10.6,0,28.9,0,28.9l18.5,3.5l10.1-2.2C28.5,30.2,25,6.4,25,6.1z"/>
	<path class="st1" d="M24.6,5.9c-0.1,0-2.6-0.2-2.6-0.2S20.3,4,20,3.8c-0.1-0.1-0.1-0.1-0.2-0.1l-1.4,28.7l10.1-2.2
		c0,0-3.5-23.7-3.5-23.9C25,6,24.7,5.9,24.6,5.9"/>
	<path class="st2" d="M15.1,11.5l-1.3,3.8c0,0-1-0.6-2.4-0.6c-2,0-2.1,1.2-2.1,1.5c0,1.6,4.4,2.3,4.4,6.2c0,3.1-2,5.1-4.6,5.1
		c-3.1,0-4.7-2-4.7-2l0.8-2.8c0,0,1.6,1.4,3,1.4c0.9,0,1.3-0.7,1.3-1.3c0-2.2-3.6-2.3-3.6-5.9c0-3,2.2-5.9,6.5-5.9
		C14.3,11,15.1,11.5,15.1,11.5"/>
	<path class="st0" d="M40.2,18.4c-1-0.6-1.5-1-1.5-1.6c0-0.8,0.7-1.3,1.9-1.3c1.3,0,2.4,0.6,2.4,0.6l0.9-2.8c0,0-0.8-0.7-3.2-0.7
		c-3.5,0-5.8,2-5.8,4.7c0,1.6,1.2,2.8,2.6,3.6c1.2,0.7,1.6,1.2,1.6,1.9c0,0.7-0.6,1.4-1.7,1.4c-1.6,0-3.2-0.8-3.2-0.8l-1,2.7
		c0,0,1.4,0.9,3.8,0.9c3.5,0,6-1.7,6-4.8C43.1,20.5,41.8,19.2,40.2,18.4 M54.3,12.5c-1.7,0-3.1,0.8-4.2,2.1l0,0l1.5-7.9h-3.9
		l-3.8,20.1h3.9l1.3-6.8c0.5-2.6,1.9-4.2,3.1-4.2c0.9,0,1.3,0.6,1.3,1.5c0,0.6,0,1.2-0.1,1.7l-1.5,7.9h3.9l1.5-8.1
		c0.1-0.8,0.2-1.9,0.2-2.6C57.5,13.9,56.4,12.5,54.3,12.5 M64.5,23.9c-1.4,0-1.9-1.2-1.9-2.6c0-2.2,1.2-5.9,3.2-5.9
		c1.4,0,1.9,1.2,1.9,2.3C67.7,20.3,66.5,23.9,64.5,23.9z M66.4,12.5c-4.7,0-7.9,4.3-7.9,9.1c0,3,1.9,5.4,5.4,5.4
		c4.6,0,7.8-4.2,7.8-9.1C71.8,15.1,70.1,12.5,66.4,12.5z M78.1,24.1c-1,0-1.6-0.6-1.6-0.6l0.7-3.7c0.5-2.4,1.7-4,3.1-4
		c1.2,0,1.6,1.2,1.6,2.2C81.8,20.5,80.3,24.1,78.1,24.1z M81.9,12.5c-2.7,0-4.2,2.3-4.2,2.3l0,0l0.2-2.1h-3.5
		c-0.1,1.4-0.5,3.6-0.8,5.2l-2.8,14.4h3.9l1-5.8h0.1c0,0,0.8,0.5,2.3,0.5c4.6,0,7.6-4.7,7.6-9.6C86,14.9,84.8,12.5,81.9,12.5z
		 M91.6,6.8c-1.3,0-2.2,1-2.2,2.3c0,1.2,0.7,2,1.9,2l0,0c1.3,0,2.3-0.8,2.3-2.3C93.6,7.6,92.8,6.8,91.6,6.8 M86.1,26.8H90l2.7-14
		h-3.9L86.1,26.8z M102.7,12.8h-2.8l0.1-0.7c0.2-1.4,1-2.6,2.3-2.6c0.7,0,1.3,0.2,1.3,0.2l0.8-3.1c0,0-0.7-0.3-2.1-0.3
		s-2.8,0.3-3.8,1.3c-1.4,1.2-2,2.8-2.3,4.4l-0.1,0.7h-1.8l-0.6,3h1.9l-2.1,11.1h3.9l2.1-11.1h2.7L102.7,12.8z M112.2,12.8
		c0,0-2.4,6.1-3.6,9.6l0,0c-0.1-1-0.9-9.6-0.9-9.6h-4.2l2.3,12.8c0,0.2,0,0.5-0.1,0.7c-0.5,0.9-1.3,1.7-2.1,2.3
		c-0.7,0.6-1.6,0.9-2.2,1.2l1,3.4c0.8-0.1,2.4-0.8,3.8-2.1c1.7-1.6,3.5-4.3,5.1-7.8l4.7-10.4L112.2,12.8z"/>
</g>
</svg>
