<?xml version="1.0" encoding="utf-8"?>
<!-- Generator: Adobe Illustrator 24.0.2, SVG Export Plug-In . SVG Version: 6.00 Build 0)  -->
<svg version="1.1" id="Layer_1" xmlns="http://www.w3.org/2000/svg" xmlns:xlink="http://www.w3.org/1999/xlink" x="0px" y="0px"
	 viewBox="0 0 120 40" style="enable-background:new 0 0 120 40;" xml:space="preserve">
<style type="text/css">
	.st0{fill-rule:evenodd;clip-rule:evenodd;fill:#C4B4FF;}
</style>
<g>
	<path class="st0" d="M22.5,26.6c-0.2,1.7-1.2,3.1-2.8,3.8c-0.9,0.4-2.1,0.6-3,0.5c-1.5-0.1-2.9-0.4-4.2-1.1
		c-0.5-0.2-1.1-0.7-1.7-1.1c-0.1-0.1-0.2-0.2-0.1-0.3c0-0.1,0.1-0.2,0.3-0.5c0.3-0.4,0.3-0.5,0.3-0.5c0.1-0.1,0.2-0.2,0.4,0
		c0,0,0,0,0,0c0,0,0,0,0.1,0.1c0.1,0,0.1,0.1,0.1,0.1c1.4,1.1,3,1.7,4.6,1.8c2.3,0,3.9-1.1,4.2-2.6c0.3-1.7-1-3.2-3.7-4
		c-0.8-0.3-2.9-1.1-3.3-1.3c-1.8-1.1-2.7-2.5-2.5-4.2c0.2-2.4,2.4-4.2,5.2-4.2c1.3,0,2.5,0.3,3.7,0.8c0.4,0.2,1.2,0.6,1.4,0.8
		c0.2,0.1,0.2,0.2,0.1,0.4c0,0.1-0.1,0.2-0.3,0.5l0,0c-0.2,0.4-0.2,0.4-0.3,0.4c-0.1,0.1-0.2,0.1-0.3,0c-1.3-0.9-2.7-1.3-4.3-1.3
		c-1.9,0-3.4,1.2-3.5,2.8c0,1.4,1,2.5,3.3,3.3C21.1,22.1,22.9,23.8,22.5,26.6 M16.8,2.1c3,0,5.5,2.9,5.6,6.5H11.1
		C11.2,5,13.7,2.1,16.8,2.1 M32.5,9.3c0-0.4-0.3-0.7-0.7-0.7h-7.3C24.3,3.8,20.9,0,16.8,0C12.6,0,9.2,3.8,9,8.6H1.7
		C1.3,8.6,1,8.9,1,9.3c0,0,0,0,0,0l0,0l1,23c0,0.1,0,0.1,0,0.2c0,0,0,0,0,0v0l0,0c0.2,1.6,1.3,2.9,2.9,3l0,0h23.2c0,0,0,0,0,0
		s0,0,0,0h0l0,0c1.6,0,2.9-1.4,3-3l0,0v0c0,0,0,0,0,0c0,0,0-0.1,0-0.1L32.5,9.3L32.5,9.3C32.5,9.3,32.5,9.3,32.5,9.3 M110,24.3
		c0.4-1.5,1.8-2.4,3.4-2.4c1.5,0,2.9,1,3.4,2.4l0,0.1L110,24.3L110,24.3z M118.4,26.4C118.4,26.4,118.4,26.4,118.4,26.4
		C118.4,26.4,118.4,26.4,118.4,26.4c0.4,0,0.6-0.3,0.6-0.6c0,0,0,0,0-0.1c0,0,0,0,0,0c0-3.2-2.5-5.8-5.6-5.8c-3.1,0-5.6,2.6-5.6,5.8
		c0,0.2,0,0.5,0,0.7v0l0,0.1c0.2,1.2,0.6,2.2,1.4,3.1l0,0c0.9,1,2,1.6,3.4,1.9h0l0,0l0.1,0c0,0,0.1,0,0.2,0c1.7,0.2,3.2,0,4.5-0.7
		c0.3-0.2,0.6-0.3,0.8-0.5c0.1-0.1,0.2-0.1,0.2-0.2c0,0,0.1,0,0.1-0.1c0.3-0.3,0.3-0.4,0.1-0.7c-0.2-0.3-0.4-0.6-0.5-0.8
		c0-0.1-0.1-0.1-0.1-0.2c0,0,0,0,0,0c0,0,0,0,0,0l0,0c-0.2-0.2-0.3-0.2-0.4-0.1c0,0-0.1,0.1-0.1,0.1c-1.2,1.1-2.9,1.5-4.6,1.1
		c-0.3-0.1-0.6-0.2-0.9-0.3c-1.1-0.5-1.8-1.5-2-2.6l0-0.1L118.4,26.4z M96.5,24.3c0.4-1.5,1.8-2.4,3.4-2.4c1.5,0,2.9,1,3.4,2.4
		l0,0.1L96.5,24.3L96.5,24.3z M104.9,26.4C104.9,26.4,104.9,26.4,104.9,26.4C105,26.4,105,26.4,104.9,26.4c0.4,0,0.6-0.3,0.6-0.6
		c0,0,0,0,0-0.1c0,0,0,0,0,0c0-3.2-2.5-5.8-5.6-5.8c-3.1,0-5.6,2.6-5.6,5.8c0,0.2,0,0.5,0,0.7v0l0,0.1c0.2,1.2,0.6,2.2,1.4,3.1l0,0
		c0.9,1,2,1.6,3.4,1.9h0l0,0l0.1,0c0,0,0.1,0,0.2,0c1.7,0.2,3.2,0,4.5-0.7c0.3-0.2,0.6-0.3,0.8-0.5c0.1-0.1,0.2-0.1,0.2-0.2
		c0,0,0.1,0,0.1-0.1c0.3-0.3,0.3-0.4,0.1-0.7c-0.2-0.3-0.4-0.6-0.5-0.8c0-0.1-0.1-0.1-0.1-0.2c0,0,0,0,0,0c0,0,0,0,0,0l0,0
		c-0.2-0.2-0.3-0.2-0.4-0.1c0,0-0.1,0.1-0.1,0.1c-1.2,1.1-2.9,1.5-4.6,1.1c-0.3-0.1-0.6-0.2-0.9-0.3c-1.1-0.5-1.8-1.5-2-2.6l0-0.1
		L104.9,26.4z M86.3,29.6c-2.1,0-3.8-1.7-3.9-3.8v-0.2c0-2.1,1.8-3.8,3.9-3.8c2.1,0,3.9,1.7,3.9,3.8S88.4,29.6,86.3,29.6 M86.3,19.9
		c-1.4,0-2.7,0.5-3.8,1.3l-0.1,0.1v-1.1c0-0.3-0.1-0.4-0.4-0.4h-1.4c-0.3,0-0.4,0.1-0.4,0.4v17.2c0,0.3,0.1,0.4,0.4,0.4h1.4
		c0.3,0,0.4-0.1,0.4-0.4v-7.2l0.1,0.1c1.1,0.9,2.4,1.3,3.8,1.3c3.3,0,5.9-2.6,5.9-5.9C92.2,22.5,89.6,19.9,86.3,19.9 M72.4,29.5
		c-2.1,0-3.9-1.7-3.9-3.8s1.7-3.8,3.9-3.8c2.1,0,3.9,1.7,3.9,3.8C76.2,27.8,74.5,29.5,72.4,29.5 M72.4,19.8c-3.3,0-5.9,2.6-5.9,5.8
		s2.7,5.8,5.9,5.8c3.3,0,5.9-2.6,5.9-5.8S75.6,19.8,72.4,19.8 M59.1,19.9c-1.2,0-2.4,0.4-3.3,1.1l-0.1,0.1v-8c0-0.3-0.1-0.4-0.4-0.4
		h-1.4c-0.3,0-0.4,0.1-0.4,0.4v18.2c0,0.3,0.1,0.4,0.4,0.4h1.4c0.3,0,0.4-0.1,0.4-0.4v-5.9c0-1.9,1.5-3.4,3.4-3.4s3.4,1.5,3.4,3.4
		v5.9c0,0.3,0,0.4,0.4,0.4h1.4c0.3,0,0.4,0,0.4-0.4v-5.9C64.7,22.4,62.2,19.9,59.1,19.9 M39.4,28.4L39.4,28.4
		c-0.2,0.3-0.3,0.4-0.3,0.5c-0.2,0.2-0.1,0.3,0.1,0.5c0.6,0.5,1.3,0.9,1.8,1.2c1.4,0.7,2.8,1,4.4,1.1c1,0,2.3-0.2,3.2-0.6
		c1.7-0.8,2.8-2.3,3-4.1c0.3-3-1.6-4.8-6.6-6.3l0,0c-2.3-0.7-3.4-1.7-3.4-3.1c0.1-1.5,1.5-2.7,3.4-2.7c1.5,0,2.9,0.4,4.3,1.3
		c0.3,0.2,0.4,0.1,0.6-0.1c0,0,0.1-0.1,0.3-0.5l0,0c0.2-0.3,0.3-0.5,0.3-0.5c0.2-0.3,0.1-0.4-0.2-0.6c-0.3-0.2-1.1-0.6-1.5-0.8
		c-1.3-0.5-2.6-0.8-3.9-0.7c-3,0.1-5.3,2-5.5,4.6c-0.1,1.8,0.8,3.3,2.8,4.4c0.5,0.3,2.5,1.1,3.5,1.3c2.7,0.8,4,2.2,3.8,3.9
		c-0.3,1.5-1.9,2.6-4.1,2.6c-1.6,0-3.3-0.6-4.7-1.7c0,0,0,0-0.1-0.1c-0.1-0.1-0.1-0.1-0.1-0.1c-0.3-0.2-0.5-0.2-0.6,0.1
		C39.7,27.9,39.5,28.2,39.4,28.4"/>
</g>
</svg>
