<?xml version="1.0" encoding="utf-8"?>
<!-- Generator: Adobe Illustrator 24.0.2, SVG Export Plug-In . SVG Version: 6.00 Build 0)  -->
<svg version="1.1" id="Layer_1" xmlns="http://www.w3.org/2000/svg" xmlns:xlink="http://www.w3.org/1999/xlink" x="0px" y="0px"
	 viewBox="0 0 153.1 22.7" style="enable-background:new 0 0 153.1 22.7;" xml:space="preserve">
<style type="text/css">
	.st0{fill:#C4B4FF;}
</style>
<title>Logos</title>
<g>
	<path class="st0" d="M2.7,0.8c5.8,0,11.5,0,17.3,0c0,0.3,0,0.5,0,0.8C15,7.8,10.1,13.9,5.2,20.1c5,0,9.9,0,14.9,0
		c0,0.5,0,1.2,0,1.7c-6,0-12.1,0-18.1,0c0-0.2,0-0.5,0-0.7C7,14.9,11.9,8.7,16.8,2.5c-4.7,0-9.4,0-14.1,0C2.7,2,2.7,1.4,2.7,0.8
		L2.7,0.8z"/>
	<path class="st0" d="M56.9,0.8c0.6,0,1.3,0,1.9,0c0,6.5,0,12.8,0,19.3c3.3,0,6.6,0,9.9,0c0,0.5,0,1.2,0,1.7c-3.9,0-7.8,0-11.8,0
		C56.8,14.8,56.8,7.8,56.9,0.8L56.9,0.8z"/>
	<path class="st0" d="M98.2,8.1c-0.7-2.5-2.4-4.6-4.5-5.9c-2.2-1.4-5-1.9-7.6-1.5c-2.9,0.5-5.7,2.2-7.2,4.8c-1.8,2.8-2.2,6.6-1,9.8
		c0.8,2.2,2.5,4.2,4.5,5.4c2.8,1.6,6.1,1.9,9.1,0.8c2.3-0.8,4.4-2.5,5.6-4.5C98.7,14.3,99.1,11,98.2,8.1z M94.8,16.9
		c-1.3,1.7-3.3,2.9-5.5,3.2c-2.4,0.4-4.9-0.2-6.8-1.8c-1.8-1.5-3.1-3.8-3.3-6.1c-0.2-2.5,0.5-5.1,2.2-6.9C82.7,4,84.3,3,86.1,2.7
		c2.4-0.5,5.1,0,7.1,1.5c1.9,1.4,3.2,3.6,3.5,5.9C96.9,12.4,96.2,15,94.8,16.9z"/>
	<path class="st0" d="M120.4,14.4c-0.7-1.1-1.4-2.2-2.4-3.1c0.7-0.3,1.3-0.7,1.9-1.2c2.4-2,2.2-6.3-0.4-8.1c-1.3-0.9-3-1.3-4.7-1.3
		c-1.8,0-3.6,0-5.5,0c0,7,0,14,0,21h1.9c0-3.3,0-6.6,0-9.9c1.6,0.1,3.4-0.3,4.9,0.5c1.3,0.8,2,2.2,2.8,3.4c1.2,2,2.5,4.1,3.8,6.1
		c0.8,0,1.5,0,2.3,0C123.5,19.3,122,16.9,120.4,14.4z M115.1,10.2c-1.2,0-2.5,0-3.7,0c0-2.5,0-5.1,0-7.7c1.4,0,2.8-0.1,4.1,0.1
		c1.4,0.2,2.9,0.6,3.6,1.9c0.7,1.4,0.6,3.2-0.5,4.4C117.7,9.8,116.3,10.1,115.1,10.2z"/>
	<path class="st0" d="M38.2,0.7c-0.4,0-0.7,0-1.1,0c-3.2,7.1-6.3,14.1-9.5,21.1c0.7,0,1.4,0,2,0c1.1-2.4,2.1-4.8,3.2-7.1
		c3.2,0,6.4,0,9.5,0c1.1,2.4,2.1,4.8,3.2,7.1c0.7,0,1.4,0,2,0C44.5,14.8,41.3,7.7,38.2,0.7z M33.6,12.9c1.3-3,2.7-6,4-9.1
		c1.3,3,2.7,6,4,9.1H33.6z"/>
	<path class="st0" d="M141.7,0.7c-0.4,0-0.7,0-1.1,0c-3.2,7.1-6.3,14.1-9.5,21.1c0.7,0,1.4,0,2,0c1.1-2.4,2.1-4.8,3.2-7.1h9.5
		c1.1,2.4,2.1,4.8,3.2,7.1c0.7,0,1.4,0,2,0C148,14.8,144.9,7.7,141.7,0.7z M137.2,12.9c1.3-3,2.7-6,4-9.1c1.3,3,2.7,6,4,9.1H137.2z"
		/>
</g>
</svg>
