<?xml version="1.0" encoding="utf-8"?>
<!-- Generator: Adobe Illustrator 24.0.2, SVG Export Plug-In . SVG Version: 6.00 Build 0)  -->
<svg version="1.1" id="svg1936" xmlns:svg="http://www.w3.org/2000/svg"
	 xmlns="http://www.w3.org/2000/svg" xmlns:xlink="http://www.w3.org/1999/xlink" x="0px" y="0px" viewBox="0 0 450.8 136.1"
	 style="enable-background:new 0 0 450.8 136.1;" xml:space="preserve">
<style type="text/css">
	.st0{fill:#FF9900;}
	.st1{fill:#221F1F;}
</style>
<g>
	<path id="path8" class="st0" d="M280.1,106.4c-26.2,19.3-64.3,29.7-97,29.7c-45.9,0-87.2-17-118.5-45.2c-2.5-2.2-0.3-5.2,2.7-3.5
		c33.7,19.6,75.5,31.4,118.6,31.4c29.1,0,61-6,90.4-18.5C280.7,98.4,284.4,103.2,280.1,106.4"/>
	<path id="path10" class="st0" d="M291,93.9c-3.3-4.3-22.2-2-30.6-1c-2.6,0.3-3-1.9-0.6-3.5c15-10.6,39.6-7.5,42.5-4
		c2.9,3.6-0.7,28.2-14.8,40c-2.2,1.8-4.2,0.8-3.3-1.6C287.3,115.9,294.4,98.2,291,93.9"/>
	<path id="path12" class="st1" d="M261,14.9V4.6c0-1.6,1.2-2.6,2.6-2.6h45.9c1.5,0,2.7,1.1,2.7,2.6v8.8c0,1.5-1.3,3.4-3.5,6.4
		l-23.8,34c8.8-0.2,18.2,1.1,26.2,5.6c1.8,1,2.3,2.5,2.4,4v10.9c0,1.5-1.7,3.2-3.4,2.3c-14.1-7.4-32.9-8.2-48.5,0.1
		c-1.6,0.9-3.3-0.9-3.3-2.4V64c0-1.7,0-4.5,1.7-7.1l27.6-39.5h-24C262.2,17.4,261,16.4,261,14.9"/>
	<path id="path14" class="st1" d="M93.4,78.9h-14c-1.3-0.1-2.4-1.1-2.5-2.4V4.8c0-1.4,1.2-2.6,2.7-2.6h13C94,2.3,95,3.3,95.1,4.6V14
		h0.3c3.4-9.1,9.8-13.3,18.4-13.3c8.7,0,14.2,4.2,18.1,13.3c3.4-9.1,11.1-13.3,19.3-13.3c5.9,0,12.3,2.4,16.2,7.8
		c4.4,6,3.5,14.8,3.5,22.5v45.3c0,1.4-1.2,2.6-2.7,2.6h-14c-1.4-0.1-2.5-1.2-2.5-2.6v-38c0-3,0.3-10.6-0.4-13.4
		c-1-4.8-4.2-6.2-8.2-6.2c-3.4,0-6.9,2.3-8.4,5.9c-1.4,3.6-1.3,9.7-1.3,13.7v38c0,1.4-1.2,2.6-2.7,2.6h-14c-1.4-0.1-2.5-1.2-2.5-2.6
		v-38c0-8,1.3-19.8-8.6-19.8c-10,0-9.7,11.5-9.7,19.8v38C96.1,77.7,94.9,78.9,93.4,78.9"/>
	<path id="path16" class="st1" d="M351.7,0.7c20.7,0,32,17.8,32,40.4c0,21.9-12.4,39.2-32,39.2c-20.4,0-31.4-17.8-31.4-40
		C320.3,18,331.5,0.7,351.7,0.7 M351.8,15.3c-10.3,0-10.9,14-10.9,22.8s-0.1,27.5,10.8,27.5c10.8,0,11.3-15.1,11.3-24.3
		c0-6.1-0.3-13.3-2.1-19C359.4,17.3,356.3,15.3,351.8,15.3"/>
	<path id="path18" class="st1" d="M410.5,78.9h-13.9c-1.4-0.1-2.5-1.2-2.5-2.6V4.6c0.1-1.3,1.3-2.3,2.7-2.3h13
		c1.2,0.1,2.2,0.9,2.5,2v11h0.3c3.9-9.8,9.4-14.5,19-14.5c6.3,0,12.4,2.3,16.3,8.5c3.7,5.7,3.7,15.4,3.7,22.3v45.1
		c-0.2,1.3-1.3,2.3-2.7,2.3h-14c-1.3-0.1-2.3-1-2.5-2.3v-39c0-7.8,0.9-19.3-8.7-19.3c-3.4,0-6.5,2.3-8.1,5.7
		c-2,4.4-2.2,8.7-2.2,13.6v38.6C413.3,77.7,412,78.9,410.5,78.9"/>
	<g id="use28" transform="translate(244.36719)">
		<path id="path30" class="st1" d="M-21.6,44.6v-3c-10.1,0-20.8,2.2-20.8,14.1c0,6,3.1,10.1,8.5,10.1c3.9,0,7.4-2.4,9.7-6.3
			C-21.5,54.6-21.6,50.1-21.6,44.6 M-7.5,78.7c-0.9,0.8-2.3,0.9-3.3,0.3c-4.6-3.9-5.5-5.6-8-9.3c-7.7,7.8-13.1,10.2-23,10.2
			c-11.8,0-20.9-7.3-20.9-21.8c0-11.3,6.2-19.1,14.9-22.8c7.6-3.3,18.2-3.9,26.3-4.9v-1.8c0-3.3,0.3-7.3-1.7-10.1
			c-1.7-2.6-5-3.6-7.8-3.6c-5.3,0-10.1,2.7-11.2,8.4c-0.2,1.3-1.2,2.5-2.4,2.6l-13.6-1.5c-1.1-0.3-2.4-1.2-2.1-2.9
			C-57.3,5-42.5,0-29.2,0c6.8,0,15.7,1.8,21,7C-1.4,13.3-2,21.8-2,31v21.8c0,6.5,2.7,9.4,5.3,13c0.9,1.3,1.1,2.8,0,3.7
			C0.4,71.8-4.7,76.2-7.5,78.7L-7.5,78.7"/>
	</g>
	<path id="path30_1_" class="st1" d="M41.2,44.6v-3c-10.1,0-20.8,2.2-20.8,14.1c0,6,3.1,10.1,8.5,10.1c3.9,0,7.4-2.4,9.7-6.3
		C41.3,54.6,41.2,50.1,41.2,44.6 M55.3,78.7c-1,0.8-2.3,0.9-3.3,0.3c-4.6-3.9-5.5-5.6-8-9.3c-7.7,7.8-13.1,10.2-23,10.2
		c-11.8,0-21-7.3-21-21.8C0,46.7,6.2,39,14.9,35.2c7.6-3.3,18.2-3.9,26.3-4.9v-1.8c0-3.3,0.3-7.3-1.7-10.1c-1.7-2.6-5-3.6-7.8-3.6
		c-5.3,0-10.1,2.7-11.2,8.4c-0.2,1.3-1.2,2.5-2.4,2.6L4.4,24.3C3.3,24,2,23.1,2.3,21.4C5.5,5,20.3,0,33.6,0c6.8,0,15.7,1.8,21,7
		c6.8,6.3,6.2,14.8,6.2,24v21.8c0,6.5,2.7,9.4,5.3,13c0.9,1.3,1.1,2.8,0,3.7C63.2,71.8,58.1,76.2,55.3,78.7L55.3,78.7"/>
</g>
</svg>
