<?xml version="1.0" encoding="utf-8"?>
<!-- Generator: Adobe Illustrator 24.0.2, SVG Export Plug-In . SVG Version: 6.00 Build 0)  -->
<svg version="1.1" id="Laag_1" xmlns="http://www.w3.org/2000/svg" xmlns:xlink="http://www.w3.org/1999/xlink" x="0px" y="0px"
	 viewBox="0 0 447.9 136.1" style="enable-background:new 0 0 447.9 136.1;" xml:space="preserve">
<style type="text/css">
	.st0{fill:#8DB849;}
	.st1{fill:#5A863E;}
	.st2{fill:#FFFFFE;}
	.st3{fill:#1A1919;}
</style>
<g>
	<path class="st0" d="M50.7,8.1c0.9,0,1.3,0.4,2.2,0.9c-5.4,2.2-10.8,8.1-13.5,20.6l-9.9,2.7C32.8,23.4,39,8.1,50.7,8.1z M55.6,12.6
		c0.9,2.7,1.8,5.8,1.8,10.8c0,0.4,0,0.4,0,0.9l-13,3.6C47.1,18.4,51.6,14.4,55.6,12.6z M67.3,20.7l-5.8,1.8c0-0.4,0-0.9,0-1.3
		c0-4-0.4-7.2-1.3-9.9C63.3,12.2,66,16.2,67.3,20.7z M96.5,27.9c0-0.4-0.4-0.9-0.9-0.9c-0.9,0-10.3-0.9-10.3-0.9s-6.7-6.7-7.6-7.2
		c-0.9-0.9-2.2-0.4-2.7-0.4c0,0-1.3,0.4-3.6,1.3c-2.2-6.3-6.3-12.1-13-12.1h-0.4c-1.8-2.7-4.5-3.6-6.7-3.6
		C35,3.6,27.4,23.8,24.7,34.2c-3.6,0.9-7.2,2.2-11.2,3.6c-3.6,0.9-3.6,1.3-4,4.5C9,44.5,0,115.4,0,115.4l71.4,13.5l38.6-8.5
		C109.9,120.3,96.5,28.8,96.5,27.9z"/>
	<path class="st1" d="M95.1,27c-0.4,0-9.9-0.9-9.9-0.9s-6.7-6.7-7.6-7.2c-0.4-0.4-0.4-0.4-0.9-0.4l-5.4,110.4l38.6-8.5
		c0,0-13.5-91.5-13.5-92.4C96.5,27.4,95.6,27,95.1,27"/>
	<path class="st2" d="M58.3,48.5l-4.9,14.4c0,0-4-2.2-9.4-2.2c-7.6,0-8.1,4.5-8.1,5.8c0,6.3,17.1,9,17.1,24.2
		c0,12.1-7.6,19.7-18,19.7c-12.1,0-18.4-7.6-18.4-7.6L19.7,92c0,0,6.3,5.4,11.7,5.4c3.6,0,4.9-2.7,4.9-4.9c0-8.5-13.9-9-13.9-22.9
		c0-11.7,8.5-22.9,25.1-22.9C55.2,46.3,58.3,48.5,58.3,48.5"/>
	<path class="st3" d="M155.3,75c-4-2.2-5.8-4-5.8-6.3c0-3.1,2.7-4.9,7.2-4.9c4.9,0,9.4,2.2,9.4,2.2l3.6-10.8c0,0-3.1-2.7-12.6-2.7
		c-13.5,0-22.4,7.6-22.4,18.4c0,6.3,4.5,10.8,9.9,13.9c4.5,2.7,6.3,4.5,6.3,7.2c0,2.7-2.2,5.4-6.7,5.4c-6.3,0-12.6-3.1-12.6-3.1
		l-3.6,10.8c0,0,5.4,3.6,14.8,3.6c13.5,0,23.3-6.7,23.3-18.8C166,83.1,161.1,78.1,155.3,75 M209.6,52.1c-6.7,0-12.1,3.1-16.2,8.1
		l0,0l5.8-30.5H184l-14.8,77.6h15.3l4.9-26.5c1.8-9.9,7.2-16.2,12.1-16.2c3.6,0,4.9,2.2,4.9,5.8c0,2.2,0,4.5-0.4,6.7l-5.8,30.5h15.3
		l5.8-31.4c0.4-3.1,0.9-7.2,0.9-9.9C222.1,57.5,217.7,52.1,209.6,52.1 M248.6,96.5c-5.4,0-7.2-4.5-7.2-9.9c0-8.5,4.5-22.9,12.6-22.9
		c5.4,0,7.2,4.5,7.2,9C261.2,82.6,256.7,96.5,248.6,96.5z M256.2,52.1c-18.4,0-30.5,16.6-30.5,35c0,11.7,7.2,21.1,21.1,21.1
		c18,0,30.1-16.2,30.1-35C276.9,62.4,270.6,52.1,256.2,52.1z M301.1,97c-4,0-6.3-2.2-6.3-2.2l2.7-14.4c1.8-9.4,6.7-15.7,12.1-15.7
		c4.5,0,6.3,4.5,6.3,8.5C315.5,83.1,309.7,97,301.1,97z M315.9,52.1c-10.3,0-16.2,9-16.2,9l0,0l0.9-8.1h-13.5
		c-0.4,5.4-1.8,13.9-3.1,20.2l-10.8,55.6h15.3l4-22.4h0.4c0,0,3.1,1.8,9,1.8c18,0,29.6-18.4,29.6-36.8
		C331.6,61.5,327.2,52.1,315.9,52.1z M353.2,30.6c-4.9,0-8.5,4-8.5,9c0,4.5,2.7,7.6,7.2,7.6l0,0c4.9,0,9-3.1,9-9
		C360.8,33.7,357.7,30.6,353.2,30.6 M332.1,107.3h15.3l10.3-53.9h-15.3L332.1,107.3z M396.3,53.5h-10.8l0.4-2.7c0.9-5.4,4-9.9,9-9.9
		c2.7,0,4.9,0.9,4.9,0.9l3.1-12.1c0,0-2.7-1.3-8.1-1.3c-5.4,0-10.8,1.3-14.8,4.9c-5.4,4.5-7.6,10.8-9,17.1l-0.4,2.7h-7.2l-2.2,11.7
		h7.2l-8.1,42.6h15.3l8.1-42.6H394L396.3,53.5z M432.6,53.5c0,0-9.4,23.8-13.9,36.8l0,0c-0.4-4-3.6-36.8-3.6-36.8H399l9,49.4
		c0,0.9,0,1.8-0.4,2.7c-1.8,3.6-4.9,6.7-8.1,9c-2.7,2.2-6.3,3.6-8.5,4.5l4,13c3.1-0.4,9.4-3.1,14.8-8.1c6.7-6.3,13.5-16.6,19.7-30.1
		l18.4-39.9L432.6,53.5z"/>
</g>
</svg>
