<?xml version="1.0" encoding="utf-8"?>
<!-- Generator: Adobe Illustrator 24.0.2, SVG Export Plug-In . SVG Version: 6.00 Build 0)  -->
<svg version="1.1" id="Layer_1" xmlns="http://www.w3.org/2000/svg" xmlns:xlink="http://www.w3.org/1999/xlink" x="0px" y="0px"
	 viewBox="0 0 198.4 127.6" style="enable-background:new 0 0 198.4 127.6;" xml:space="preserve">
<style type="text/css">
	.st0{display:none;}
	.st1{display:inline;fill:#2B0962;}
	.st2{display:inline;}
	.st3{fill:#905EF1;}
	.st4{clip-path:url(#SVGID_2_);}
	.st5{fill:none;stroke:#FCEEE0;stroke-miterlimit:10;}
	.st6{fill:#2B0962;}
	.st7{fill:#00CBFF;}
	.st8{fill:#AB85FA;}
	.st9{fill:#C6B5FC;}
	.st10{clip-path:url(#SVGID_4_);}
	.st11{fill:#DFD5FD;}
	.st12{clip-path:url(#SVGID_6_);}
	.st13{clip-path:url(#SVGID_8_);}
	.st14{fill:none;stroke:#C6B5FC;stroke-miterlimit:10;}
</style>
<g class="st0">
	<path class="st1" d="M185.4,127.8H13c-7.2,0-13-5.8-13-13v-102c0-7.2,5.8-13,13-13h172.4c7.2,0,13,5.8,13,13v102
		C198.4,121.9,192.6,127.8,185.4,127.8z"/>
	<g class="st2">
		<path class="st3" d="M5.9,81.4V11.6c0-3.3,2.6-5.9,5.9-5.9h174.7c3.3,0,5.9,2.6,5.9,5.9v69.8c0,3.3-2.6,5.9-5.9,5.9H11.8
			C8.6,87.4,5.9,84.7,5.9,81.4z"/>
		<g>
			<defs>
				<path id="SVGID_1_" d="M5.9,81.4V11.6c0-3.3,2.6-5.9,5.9-5.9h174.7c3.3,0,5.9,2.6,5.9,5.9v69.8c0,3.3-2.6,5.9-5.9,5.9H11.8
					C8.6,87.4,5.9,84.7,5.9,81.4z"/>
			</defs>
			<clipPath id="SVGID_2_">
				<use xlink:href="#SVGID_1_"  style="overflow:visible;"/>
			</clipPath>
			<g class="st4">
				<g>
					<line class="st5" x1="19.1" y1="-9.2" x2="19.1" y2="127.8"/>
					<line class="st5" x1="39.1" y1="-9.2" x2="39.1" y2="127.8"/>
					<line class="st5" x1="59.2" y1="-9.2" x2="59.2" y2="127.8"/>
					<line class="st5" x1="79.2" y1="-9.2" x2="79.2" y2="127.8"/>
					<line class="st5" x1="99.2" y1="-9.2" x2="99.2" y2="127.8"/>
					<line class="st5" x1="119.2" y1="-9.2" x2="119.2" y2="127.8"/>
					<line class="st5" x1="139.3" y1="-9.2" x2="139.3" y2="127.8"/>
					<line class="st5" x1="159.3" y1="-9.2" x2="159.3" y2="127.8"/>
					<line class="st5" x1="179.3" y1="-9.2" x2="179.3" y2="127.8"/>
				</g>
				<g>
					<line class="st5" x1="211.1" y1="-8.4" x2="-12.7" y2="-8.4"/>
					<line class="st5" x1="211.1" y1="11.6" x2="-12.7" y2="11.6"/>
					<line class="st5" x1="211.1" y1="31.6" x2="-12.7" y2="31.6"/>
					<line class="st5" x1="211.1" y1="51.7" x2="-12.7" y2="51.7"/>
					<line class="st5" x1="211.1" y1="71.7" x2="-12.7" y2="71.7"/>
				</g>
			</g>
		</g>
	</g>
	<g class="st2">
		<g>
			<g>
				<path class="st6" d="M176.4,87.4h-28.7c0-26.7-21.8-48.5-48.5-48.5c-26.7,0-48.5,21.8-48.5,48.5H22c0-42.6,34.6-77.2,77.2-77.2
					C141.8,10.2,176.4,44.8,176.4,87.4z"/>
			</g>
		</g>
		<g>
			<path class="st7" d="M165.1,87.4h-24.5c0-22.9-18.6-41.4-41.4-41.4c-22.9,0-41.4,18.6-41.4,41.4H33.3c0-36.4,29.6-65.9,65.9-65.9
				S165.1,51,165.1,87.4z"/>
		</g>
		<g>
			<path class="st8" d="M165.1,87.4h-24.5c0-22.9-18.6-41.4-41.4-41.4c-22.9,0-41.4,18.6-41.4,41.4H33.3c0-36.4,29.6-65.9,65.9-65.9
				S165.1,51,165.1,87.4z"/>
		</g>
		<g>
			<g>
				<path class="st9" d="M151.2,87.4h-19.3c0-18-14.7-32.7-32.7-32.7c-18,0-32.7,14.7-32.7,32.7H47.2c0-28.7,23.3-52,52-52
					C127.9,35.3,148.1,63.8,151.2,87.4z"/>
			</g>
		</g>
	</g>
	<g class="st2">
		<path class="st9" d="M56,106.9c-0.9,0-1.8-0.1-2.7-0.3c-0.9-0.2-1.7-0.6-2.3-1.1c-0.7-0.5-1.2-1.3-1.6-2.2c-0.4-1-0.6-2.2-0.6-3.7
			c0-1.3,0.2-2.5,0.6-3.4c0.4-0.9,0.9-1.7,1.6-2.3c0.7-0.6,1.5-1,2.3-1.3c0.9-0.3,1.8-0.4,2.8-0.4c0.7,0,1.4,0.1,2,0.2
			c0.7,0.1,1.1,0.2,1.4,0.4l2.5,2l-2,3.3L56,96.3c-0.5,0-0.9,0.1-1.3,0.4c-0.4,0.2-0.7,0.6-1,1.1c-0.2,0.5-0.4,1.1-0.4,1.8
			c0,0.9,0.1,1.6,0.4,2.1c0.3,0.5,0.7,0.8,1.2,1c0.5,0.2,1.1,0.3,1.9,0.3c0.7,0,1.3-0.1,2-0.2s1.2-0.3,1.6-0.5
			c0.5-0.2,0.8-0.4,1.1-0.5v4.1c-0.3,0.1-0.7,0.3-1.1,0.5c-0.5,0.2-1.1,0.4-1.8,0.5C57.8,106.9,56.9,106.9,56,106.9z"/>
		<path class="st9" d="M63.4,106.7V95.7l-0.4-2l0.4-1.2h7.3c1.1,0,2,0.2,2.8,0.5c0.8,0.4,1.4,0.9,1.8,1.7c0.4,0.8,0.6,1.8,0.6,3.1
			c0,1.2-0.2,2.1-0.6,2.9c-0.4,0.8-1,1.3-1.7,1.7l0.3,0.3l1.4,1.9l1.2,1v1.2h-5.4L69,103h-1.1v0.4l0.2,2l-0.2,1.2H63.4z M67.9,99.2
			h1.2c0.5,0,0.9,0,1.2-0.1c0.3,0,0.6-0.2,0.8-0.4c0.2-0.2,0.3-0.6,0.3-1c0-0.5-0.1-0.9-0.3-1.1c-0.2-0.2-0.5-0.3-0.8-0.4
			s-0.8-0.1-1.2-0.1h-1.3L67.9,99.2z"/>
		<path class="st9" d="M84,106.9c-0.9,0-1.7-0.1-2.6-0.3c-0.9-0.2-1.6-0.6-2.4-1.1c-0.7-0.5-1.3-1.3-1.7-2.2c-0.4-1-0.6-2.2-0.6-3.7
			c0-1.5,0.2-2.7,0.6-3.7c0.4-1,1-1.7,1.7-2.2c0.7-0.5,1.5-0.9,2.4-1.1c0.9-0.2,1.7-0.3,2.6-0.3c0.9,0,1.7,0.1,2.6,0.3
			c0.9,0.2,1.6,0.6,2.4,1.1c0.7,0.5,1.3,1.3,1.7,2.2c0.4,1,0.6,2.2,0.6,3.7c0,1.5-0.2,2.7-0.6,3.7c-0.4,1-1,1.7-1.7,2.2
			c-0.7,0.5-1.5,0.9-2.4,1.1C85.7,106.8,84.8,106.9,84,106.9z M84,102.9c0.9,0,1.5-0.3,2-0.8s0.7-1.4,0.7-2.5c0-1.1-0.2-2-0.7-2.5
			s-1.1-0.8-2-0.8c-1.8,0-2.6,1.1-2.6,3.3c0,1.1,0.2,2,0.7,2.5C82.4,102.6,83.1,102.9,84,102.9z"/>
		<path class="st9" d="M92.9,106.7V95.7l-0.4-2l0.4-1.2h7.3c1.1,0,2,0.2,2.8,0.5c0.8,0.4,1.4,0.9,1.8,1.7c0.4,0.8,0.6,1.8,0.6,3.1
			c0,1.9-0.5,3.3-1.5,4.1c-1,0.8-2.5,1.2-4.3,1.2h-2.2v0.4l0.2,2l-0.2,1.2H92.9z M97.3,99.2h1.2c0.5,0,0.9,0,1.2-0.1
			c0.3,0,0.6-0.2,0.8-0.4c0.2-0.2,0.3-0.6,0.3-1c0-0.5-0.1-0.9-0.3-1.1c-0.2-0.2-0.5-0.3-0.8-0.4c-0.4,0-0.8-0.1-1.2-0.1h-1.3
			L97.3,99.2z"/>
		<path class="st9" d="M106.6,106.7V95.7l-0.4-2l0.4-1.2h7.3c1.1,0,2,0.2,2.8,0.5c0.8,0.4,1.4,0.9,1.8,1.7c0.4,0.8,0.6,1.8,0.6,3.1
			c0,1.9-0.5,3.3-1.5,4.1c-1,0.8-2.5,1.2-4.3,1.2H111v0.4l0.2,2l-0.2,1.2H106.6z M111,99.2h1.2c0.5,0,0.9,0,1.2-0.1
			c0.3,0,0.6-0.2,0.8-0.4c0.2-0.2,0.3-0.6,0.3-1c0-0.5-0.1-0.9-0.3-1.1c-0.2-0.2-0.5-0.3-0.8-0.4c-0.4,0-0.8-0.1-1.2-0.1h-1.3
			L111,99.2z"/>
		<path class="st9" d="M120.1,106.7V95.6l-0.2-2l0.2-1.2h4.5v14.3H120.1z"/>
		<path class="st9" d="M126.7,106.7V95.7l-0.4-2l0.4-1.2h4.1l4.1,5.1l1,1.7h0.2v-6.8h4.7v1.2l-0.2,2v11.1h-4l-5.1-6.9h-0.2v1.2
			l0.2,5.7H126.7z"/>
		<path class="st9" d="M150.1,106.9c-1.2,0-2.3-0.1-3.2-0.3c-1-0.2-1.8-0.6-2.6-1.1c-0.7-0.5-1.3-1.3-1.7-2.2
			c-0.4-1-0.6-2.2-0.6-3.7c0-1.5,0.2-2.7,0.6-3.7c0.4-1,1-1.7,1.7-2.2c0.7-0.5,1.5-0.9,2.5-1.1c0.9-0.2,1.9-0.3,2.9-0.3
			c0.7,0,1.3,0,1.8,0.1s1.1,0.2,1.5,0.3l2.8,1.6l-1.4,3.6l-4.5-1.4c-0.6,0-1.1,0.1-1.6,0.3c-0.5,0.2-0.9,0.5-1.2,1
			c-0.3,0.5-0.4,1.1-0.4,2c0,1.3,0.3,2.2,0.8,2.7c0.6,0.5,1.4,0.8,2.4,0.8c0.4,0,0.7,0,1-0.1c0.3,0,0.5-0.1,0.6-0.2v-1.1h-1.8v-3.2
			h6.4l0.2,1.2l-0.4,2.1v4.3c-0.1,0.1-0.5,0.1-1,0.3c-0.5,0.1-1.2,0.3-2,0.4C152.1,106.9,151.2,106.9,150.1,106.9z"/>
		<path class="st9" d="M46.2,123.9c-1.4,0-2.4-0.4-3.2-1.1c-0.8-0.7-1.2-1.8-1.2-3.1c0-0.7,0.1-1.3,0.3-1.8c0.2-0.5,0.5-0.9,0.9-1.2
			c0.3-0.3,0.7-0.6,1.1-0.7c0.4-0.2,0.7-0.3,1-0.4c-0.1-0.2-0.3-0.4-0.5-0.6s-0.4-0.6-0.5-1c-0.1-0.4-0.2-0.8-0.2-1.4
			c0-0.9,0.2-1.6,0.7-2.1c0.5-0.5,1.2-0.9,2-1.2c0.4-0.1,0.8-0.2,1.3-0.2s1,0,1.5,0c0.5,0,0.9,0.1,1.3,0.1c0.4,0,0.7,0.1,0.8,0.1
			l1.6,1.6l-1.2,2.5l-2-0.4c-0.4,0-0.7,0.1-0.8,0.3c-0.1,0.2-0.2,0.4-0.2,0.6c0,0.2,0.1,0.4,0.2,0.6c0.1,0.2,0.3,0.5,0.6,0.7
			l2.4,2.4l0.2-0.2l-0.5-2.1l0.2-1.2l4.8,0.4v3.1l-2.4,2.2l1.5,1.4l1.5,1.2v1.2h-4.7l-1.3-1.3c-0.3,0.2-0.7,0.5-1.1,0.7
			c-0.4,0.2-1,0.4-1.6,0.6C48,123.8,47.1,123.9,46.2,123.9z M47.2,120c0.4,0,0.6-0.1,0.9-0.2c0.2-0.1,0.4-0.2,0.5-0.3l-1.5-1.4
			c-0.1,0.1-0.3,0.3-0.4,0.4c-0.1,0.2-0.2,0.4-0.2,0.6c0,0.2,0.1,0.4,0.2,0.5C46.8,119.9,47,120,47.2,120z"/>
		<path class="st9" d="M60.5,123.2v-11.1l-0.4-2l0.4-1.2h7.3c1.1,0,2,0.2,2.8,0.5c0.8,0.4,1.4,0.9,1.8,1.7c0.4,0.8,0.6,1.8,0.6,3.1
			c0,1.2-0.2,2.1-0.6,2.9c-0.4,0.8-1,1.3-1.7,1.7l0.3,0.3l1.4,1.9l1.2,1v1.2h-5.4l-2.2-3.7H65v0.4l0.2,2l-0.2,1.2H60.5z M65,115.7
			h1.2c0.5,0,0.9,0,1.2-0.1s0.6-0.2,0.8-0.4s0.3-0.6,0.3-1c0-0.5-0.1-0.9-0.3-1.1c-0.2-0.2-0.5-0.3-0.8-0.4c-0.4,0-0.8-0.1-1.2-0.1
			h-1.3L65,115.7z"/>
		<path class="st9" d="M74.8,123.2l-0.4-1.2l0.4-2v-11.1h10.4l1,0.6l-1.3,3.4l-1.8-0.2h-3.8v1.6h5v3.3h-2.8l-2.2-0.2v1.9h5.6
			l2.4,2.6l-1.2,1.3H74.8z"/>
		<path class="st9" d="M93.3,123.4c-0.7,0-1.5-0.1-2.2-0.2c-0.7-0.1-1.4-0.3-1.9-0.5c-0.6-0.2-1-0.4-1.2-0.6v-4.2
			c0.5,0.3,1.1,0.5,1.7,0.8c0.6,0.2,1.3,0.4,1.9,0.5c0.7,0.1,1.3,0.2,1.9,0.2c0.8,0,1.2-0.2,1.2-0.6c0-0.2-0.1-0.3-0.3-0.5
			c-0.2-0.1-0.5-0.3-0.9-0.4c-0.4-0.1-1-0.3-1.8-0.6c-0.9-0.3-1.7-0.6-2.3-0.9c-0.6-0.3-1.1-0.7-1.4-1.2c-0.3-0.5-0.5-1.1-0.5-1.9
			c0-1.4,0.6-2.5,1.7-3.4c1.1-0.9,2.8-1.3,4.9-1.3c0.4,0,0.9,0,1.4,0.1c0.5,0,0.9,0.1,1.2,0.1l2.5,1.7l-1,3.1l-5.2-1.3
			c-0.5,0-0.8,0.2-0.8,0.5c0,0.3,0.2,0.5,0.5,0.7c0.3,0.2,1,0.4,1.9,0.7c1.2,0.4,2.2,0.8,2.9,1.2c0.7,0.4,1.2,0.9,1.5,1.4
			c0.3,0.5,0.5,1.2,0.5,1.9c0,1.4-0.5,2.4-1.6,3.3C96.9,122.9,95.4,123.4,93.3,123.4z"/>
		<path class="st9" d="M101.1,123.2V112l-0.2-2l0.2-1.2h4.5v14.3H101.1z"/>
		<path class="st9" d="M107.2,123.2l-0.6-1.2l6.3-9.3h-5.7v-3.8h11.7v2.4l-5.3,8.1h0.6l4.7-0.4v4.2H107.2z"/>
		<path class="st9" d="M120.2,123.2V112l-0.2-2l0.2-1.2h4.5v14.3H120.2z"/>
		<path class="st9" d="M126.9,123.2v-11.1l-0.4-2l0.4-1.2h4.1l4.1,5.1l1,1.7h0.2v-6.8h4.7v1.2l-0.2,2v11.1h-4l-5.1-6.9h-0.2v1.2
			l0.2,5.7H126.9z"/>
		<path class="st9" d="M150.2,123.4c-1.2,0-2.3-0.1-3.2-0.3c-1-0.2-1.8-0.6-2.6-1.1c-0.7-0.5-1.3-1.3-1.7-2.2
			c-0.4-1-0.6-2.2-0.6-3.7c0-1.5,0.2-2.7,0.6-3.7c0.4-1,1-1.7,1.7-2.2c0.7-0.5,1.5-0.9,2.5-1.1c0.9-0.2,1.9-0.3,2.9-0.3
			c0.7,0,1.3,0,1.8,0.1s1.1,0.2,1.5,0.3l2.8,1.6l-1.4,3.6l-4.5-1.4c-0.6,0-1.1,0.1-1.6,0.3c-0.5,0.2-0.9,0.5-1.2,1
			c-0.3,0.5-0.4,1.1-0.4,2c0,1.3,0.3,2.2,0.8,2.7c0.6,0.5,1.4,0.8,2.4,0.8c0.4,0,0.7,0,1-0.1c0.3,0,0.5-0.1,0.6-0.2v-1.1h-1.8v-3.2
			h6.4l0.2,1.2l-0.4,2.1v4.3c-0.1,0.1-0.5,0.1-1,0.3s-1.2,0.3-2,0.4C152.2,123.3,151.3,123.4,150.2,123.4z"/>
	</g>
</g>
<g class="st0">
	<path class="st1" d="M185.4,127.8H13c-7.2,0-13-5.8-13-13v-102c0-7.2,5.8-13,13-13h172.4c7.2,0,13,5.8,13,13v102
		C198.4,121.9,192.6,127.8,185.4,127.8z"/>
	<g class="st2">
		<path class="st3" d="M5.9,81.4V11.6c0-3.3,2.6-5.9,5.9-5.9h174.7c3.3,0,5.9,2.6,5.9,5.9v69.8c0,3.3-2.6,5.9-5.9,5.9H11.8
			C8.6,87.4,5.9,84.7,5.9,81.4z"/>
		<g>
			<defs>
				<path id="SVGID_3_" d="M5.9,81.4V11.6c0-3.3,2.6-5.9,5.9-5.9h174.7c3.3,0,5.9,2.6,5.9,5.9v69.8c0,3.3-2.6,5.9-5.9,5.9H11.8
					C8.6,87.4,5.9,84.7,5.9,81.4z"/>
			</defs>
			<clipPath id="SVGID_4_">
				<use xlink:href="#SVGID_3_"  style="overflow:visible;"/>
			</clipPath>
			<g class="st10">
				<g>
					<line class="st5" x1="19.1" y1="-9.2" x2="19.1" y2="127.8"/>
					<line class="st5" x1="39.1" y1="-9.2" x2="39.1" y2="127.8"/>
					<line class="st5" x1="59.2" y1="-9.2" x2="59.2" y2="127.8"/>
					<line class="st5" x1="79.2" y1="-9.2" x2="79.2" y2="127.8"/>
					<line class="st5" x1="99.2" y1="-9.2" x2="99.2" y2="127.8"/>
					<line class="st5" x1="119.2" y1="-9.2" x2="119.2" y2="127.8"/>
					<line class="st5" x1="139.3" y1="-9.2" x2="139.3" y2="127.8"/>
					<line class="st5" x1="159.3" y1="-9.2" x2="159.3" y2="127.8"/>
					<line class="st5" x1="179.3" y1="-9.2" x2="179.3" y2="127.8"/>
				</g>
				<g>
					<line class="st5" x1="211.1" y1="-8.4" x2="-12.7" y2="-8.4"/>
					<line class="st5" x1="211.1" y1="11.6" x2="-12.7" y2="11.6"/>
					<line class="st5" x1="211.1" y1="31.6" x2="-12.7" y2="31.6"/>
					<line class="st5" x1="211.1" y1="51.7" x2="-12.7" y2="51.7"/>
					<line class="st5" x1="211.1" y1="71.7" x2="-12.7" y2="71.7"/>
				</g>
			</g>
		</g>
	</g>
	<g class="st2">
		<g>
			<g>
				<path class="st6" d="M176.4,87.4h-28.7c0-26.7-21.8-48.5-48.5-48.5c-26.7,0-48.5,21.8-48.5,48.5H22c0-42.6,34.6-77.2,77.2-77.2
					C141.8,10.2,176.4,44.8,176.4,87.4z"/>
			</g>
		</g>
		<g>
			<path class="st7" d="M165.1,87.4h-24.5c0-22.9-18.6-41.4-41.4-41.4c-22.9,0-41.4,18.6-41.4,41.4H33.3c0-36.4,29.6-65.9,65.9-65.9
				S165.1,51,165.1,87.4z"/>
		</g>
		<g>
			<path class="st8" d="M165.1,87.4h-24.5c0-22.9-18.6-41.4-41.4-41.4c-22.9,0-41.4,18.6-41.4,41.4H33.3c0-36.4,29.6-65.9,65.9-65.9
				S165.1,51,165.1,87.4z"/>
		</g>
		<g>
			<g>
				<path class="st9" d="M151.2,87.4h-19.3c0-18-14.7-32.7-32.7-32.7c-18,0-32.7,14.7-32.7,32.7H47.2c0-28.7,23.3-52,52-52
					C127.9,35.3,148.1,63.8,151.2,87.4z"/>
			</g>
		</g>
	</g>
	<g class="st2">
		<g>
			<path class="st11" d="M7.9,114.5V105l-0.3-1.7l0.3-1h6.6c1.3,0,2.4,0.3,3.2,0.8c0.8,0.5,1.2,1.3,1.2,2.3c0,0.6-0.1,1-0.3,1.4
				s-0.5,0.7-0.8,0.9c0.4,0.1,0.8,0.3,1.1,0.5c0.3,0.3,0.6,0.6,0.9,1c0.2,0.4,0.3,0.9,0.3,1.5c0,1.2-0.4,2.2-1.1,2.9
				c-0.7,0.7-1.9,1-3.4,1H7.9z M11.8,107h2.1c0.4,0,0.7-0.1,0.9-0.2c0.2-0.1,0.3-0.3,0.3-0.6c0-0.3-0.1-0.5-0.4-0.6
				c-0.3-0.1-0.6-0.2-0.9-0.2h-1.9V107z M11.8,111.2h3c0.5,0,0.8-0.1,1-0.2c0.2-0.1,0.3-0.3,0.3-0.6c0-0.6-0.4-0.8-1.1-0.8h-3.1
				V111.2z"/>
			<path class="st11" d="M27.3,114.7c-2,0-3.5-0.4-4.4-1.2c-0.9-0.8-1.3-2.1-1.3-4V105l0-1.8l0-1h3.9v6.5c0,0.5,0,1,0.1,1.4
				c0.1,0.4,0.3,0.7,0.5,1c0.3,0.2,0.7,0.3,1.2,0.3c0.6,0,1-0.1,1.2-0.3c0.3-0.2,0.4-0.5,0.5-0.9c0.1-0.4,0.1-0.9,0.1-1.5v-6.5H33
				v7.4c0,1.2-0.2,2.2-0.6,2.9c-0.4,0.8-1,1.3-1.8,1.7C29.8,114.5,28.7,114.7,27.3,114.7z"/>
			<path class="st11" d="M34.9,114.5V105l-0.2-1.7l0.2-1h3.9v12.4H34.9z"/>
			<path class="st11" d="M41.1,114.5l-0.3-1l0.3-1.7v-9.6h3.8v6.7l-0.2,2.4h0.3l3.1-0.2l1.2-0.2l1.5,2.6l-0.9,1.1H41.1z"/>
			<path class="st11" d="M52.2,114.5V105l-0.3-1.7l0.3-1.1h5.9c0.8,0,1.6,0.1,2.4,0.2c0.8,0.2,1.5,0.5,2.1,0.9
				c0.6,0.4,1.1,1,1.5,1.9c0.4,0.8,0.5,1.8,0.5,3.1c0,1.3-0.2,2.3-0.5,3.2c-0.4,0.8-0.9,1.5-1.5,1.9c-0.6,0.5-1.3,0.8-2.1,0.9
				c-0.8,0.2-1.6,0.3-2.4,0.3H52.2z M56.1,111.2h1.3c0.7,0,1.3-0.1,1.7-0.2c0.5-0.2,0.8-0.4,1.1-0.9c0.2-0.4,0.4-1,0.4-1.9
				c0-0.8-0.1-1.4-0.4-1.8c-0.3-0.4-0.6-0.6-1.1-0.8c-0.5-0.1-1-0.2-1.7-0.2h-1.3V111.2z"/>
			<path class="st11" d="M70.6,114.5V105l-0.3-1.8l0.3-1h9l0.9,0.5l-1.2,3l-1.6-0.2h-3.5l0.2,1.4h4.3v2.9h-2.5l-1.9-0.2v2.2l0.2,1.7
				l-0.2,1H70.6z"/>
			<path class="st11" d="M86.8,114.7c-0.7,0-1.5-0.1-2.2-0.3s-1.4-0.5-2-1c-0.6-0.5-1.1-1.1-1.5-1.9c-0.4-0.8-0.6-1.9-0.6-3.2
				c0-1.3,0.2-2.4,0.6-3.2c0.4-0.8,0.9-1.5,1.5-1.9c0.6-0.5,1.3-0.8,2-1s1.5-0.3,2.2-0.3c0.7,0,1.5,0.1,2.2,0.3c0.7,0.2,1.4,0.5,2,1
				c0.6,0.5,1.1,1.1,1.5,1.9c0.4,0.8,0.6,1.9,0.6,3.2c0,1.3-0.2,2.3-0.6,3.2c-0.4,0.8-0.9,1.5-1.5,1.9c-0.6,0.5-1.3,0.8-2,1
				C88.3,114.6,87.5,114.7,86.8,114.7z M86.8,111.2c0.8,0,1.3-0.2,1.7-0.7c0.4-0.5,0.6-1.2,0.6-2.2c0-1-0.2-1.7-0.6-2.2
				s-1-0.7-1.7-0.7c-1.5,0-2.3,1-2.3,2.9c0,1,0.2,1.7,0.6,2.2C85.5,111,86,111.2,86.8,111.2z"/>
			<path class="st11" d="M94.9,114.5V105l-0.3-1.8l0.3-1h6.3c0.9,0,1.8,0.2,2.4,0.5c0.7,0.3,1.2,0.8,1.6,1.5
				c0.4,0.7,0.5,1.6,0.5,2.6c0,1-0.2,1.8-0.5,2.5c-0.3,0.7-0.8,1.1-1.5,1.5l0.3,0.2l1.2,1.6l1,0.9v1h-4.6l-1.9-3.2h-0.9v0.4l0.2,1.7
				l-0.2,1.1H94.9z M98.7,108.1h1c0.4,0,0.8,0,1.1-0.1c0.3,0,0.5-0.1,0.7-0.3c0.2-0.2,0.2-0.5,0.2-0.9c0-0.4-0.1-0.7-0.3-0.9
				s-0.4-0.3-0.7-0.3c-0.3,0-0.7-0.1-1.1-0.1h-1.1L98.7,108.1z"/>
			<path class="st11" d="M111.6,114.5V105l-0.3-1.7l0.3-1h6.6c1.3,0,2.4,0.3,3.2,0.8c0.8,0.5,1.2,1.3,1.2,2.3c0,0.6-0.1,1-0.3,1.4
				c-0.2,0.4-0.5,0.7-0.8,0.9c0.4,0.1,0.8,0.3,1.1,0.5c0.3,0.3,0.6,0.6,0.9,1c0.2,0.4,0.3,0.9,0.3,1.5c0,1.2-0.4,2.2-1.1,2.9
				c-0.7,0.7-1.9,1-3.4,1H111.6z M115.5,107h2.1c0.4,0,0.7-0.1,0.9-0.2c0.2-0.1,0.3-0.3,0.3-0.6c0-0.3-0.1-0.5-0.4-0.6
				c-0.3-0.1-0.6-0.2-0.9-0.2h-1.9V107z M115.5,111.2h3c0.5,0,0.8-0.1,1-0.2c0.2-0.1,0.3-0.3,0.3-0.6c0-0.6-0.4-0.8-1.1-0.8h-3.1
				V111.2z"/>
			<path class="st11" d="M125.8,114.5V105l-0.3-1.8l0.3-1h6.3c0.9,0,1.8,0.2,2.4,0.5c0.7,0.3,1.2,0.8,1.6,1.5
				c0.4,0.7,0.5,1.6,0.5,2.6c0,1-0.2,1.8-0.5,2.5c-0.3,0.7-0.8,1.1-1.5,1.5l0.3,0.2l1.2,1.6l1,0.9v1h-4.6l-1.9-3.2h-0.9v0.4l0.2,1.7
				l-0.2,1.1H125.8z M129.6,108.1h1c0.4,0,0.8,0,1.1-0.1c0.3,0,0.5-0.1,0.7-0.3c0.2-0.2,0.2-0.5,0.2-0.9c0-0.4-0.1-0.7-0.3-0.9
				s-0.4-0.3-0.7-0.3c-0.3,0-0.7-0.1-1.1-0.1h-1.1L129.6,108.1z"/>
			<path class="st11" d="M137.2,114.5l0.8-3v-2.2l1.3-0.5l2.4-6.7h5.3l3,7.8l1.3,2.5v2h-3.8l-0.9-2.6H142l-0.8,2.6H137.2z
				 M143.2,108.9h2.6l-1.2-3.5h-0.4L143.2,108.9z"/>
			<path class="st11" d="M152.8,114.5V105l-0.3-1.7l0.3-1h3.5l3.5,4.4l0.8,1.4h0.2v-5.9h4v1l-0.2,1.7v9.6h-3.5l-4.4-6h-0.2v1
				l0.2,4.9H152.8z"/>
			<path class="st11" d="M167.2,114.5V105l-0.3-1.7l0.3-1.1h5.9c0.8,0,1.6,0.1,2.4,0.2c0.8,0.2,1.5,0.5,2.1,0.9
				c0.6,0.4,1.1,1,1.5,1.9c0.4,0.8,0.5,1.8,0.5,3.1c0,1.3-0.2,2.3-0.5,3.2c-0.4,0.8-0.9,1.5-1.5,1.9c-0.6,0.5-1.3,0.8-2.1,0.9
				c-0.8,0.2-1.6,0.3-2.4,0.3H167.2z M171,111.2h1.3c0.7,0,1.3-0.1,1.7-0.2c0.5-0.2,0.8-0.4,1.1-0.9c0.2-0.4,0.4-1,0.4-1.9
				c0-0.8-0.1-1.4-0.4-1.8c-0.3-0.4-0.6-0.6-1.1-0.8c-0.5-0.1-1-0.2-1.7-0.2H171V111.2z"/>
			<path class="st11" d="M185.8,114.7c-0.6,0-1.3-0.1-1.9-0.2c-0.6-0.1-1.2-0.3-1.6-0.4c-0.5-0.2-0.8-0.3-1-0.5v-3.7
				c0.4,0.2,0.9,0.5,1.5,0.7c0.5,0.2,1.1,0.4,1.7,0.5c0.6,0.1,1.1,0.2,1.6,0.2c0.7,0,1.1-0.2,1.1-0.5c0-0.2-0.1-0.3-0.2-0.4
				c-0.1-0.1-0.4-0.2-0.8-0.4c-0.4-0.1-0.9-0.3-1.5-0.5c-0.8-0.2-1.4-0.5-2-0.8c-0.5-0.3-1-0.6-1.2-1c-0.3-0.4-0.4-1-0.4-1.7
				c0-1.2,0.5-2.2,1.5-2.9c1-0.7,2.4-1.1,4.2-1.1c0.4,0,0.8,0,1.2,0c0.4,0,0.8,0.1,1,0.1l2.1,1.4l-0.9,2.7l-4.5-1.1
				c-0.5,0-0.7,0.2-0.7,0.5c0,0.2,0.1,0.4,0.4,0.6c0.3,0.2,0.8,0.4,1.6,0.6c1,0.3,1.9,0.7,2.5,1.1c0.6,0.4,1.1,0.8,1.3,1.2
				c0.3,0.5,0.4,1,0.4,1.7c0,1.2-0.4,2.1-1.3,2.8C188.9,114.3,187.6,114.7,185.8,114.7z"/>
		</g>
	</g>
</g>
<g class="st0">
	<path class="st1" d="M185.4,127.8H13c-7.2,0-13-5.8-13-13v-102c0-7.2,5.8-13,13-13h172.4c7.2,0,13,5.8,13,13v102
		C198.4,121.9,192.6,127.8,185.4,127.8z"/>
	<g class="st2">
		<path class="st3" d="M5.9,81.4V11.6c0-3.3,2.6-5.9,5.9-5.9h174.7c3.3,0,5.9,2.6,5.9,5.9v69.8c0,3.3-2.6,5.9-5.9,5.9H11.8
			C8.6,87.4,5.9,84.7,5.9,81.4z"/>
		<g>
			<defs>
				<path id="SVGID_5_" d="M5.9,81.4V11.6c0-3.3,2.6-5.9,5.9-5.9h174.7c3.3,0,5.9,2.6,5.9,5.9v69.8c0,3.3-2.6,5.9-5.9,5.9H11.8
					C8.6,87.4,5.9,84.7,5.9,81.4z"/>
			</defs>
			<clipPath id="SVGID_6_">
				<use xlink:href="#SVGID_5_"  style="overflow:visible;"/>
			</clipPath>
			<g class="st12">
				<g>
					<line class="st5" x1="19.1" y1="-9.2" x2="19.1" y2="127.8"/>
					<line class="st5" x1="39.1" y1="-9.2" x2="39.1" y2="127.8"/>
					<line class="st5" x1="59.2" y1="-9.2" x2="59.2" y2="127.8"/>
					<line class="st5" x1="79.2" y1="-9.2" x2="79.2" y2="127.8"/>
					<line class="st5" x1="99.2" y1="-9.2" x2="99.2" y2="127.8"/>
					<line class="st5" x1="119.2" y1="-9.2" x2="119.2" y2="127.8"/>
					<line class="st5" x1="139.3" y1="-9.2" x2="139.3" y2="127.8"/>
					<line class="st5" x1="159.3" y1="-9.2" x2="159.3" y2="127.8"/>
					<line class="st5" x1="179.3" y1="-9.2" x2="179.3" y2="127.8"/>
				</g>
				<g>
					<line class="st5" x1="211.1" y1="-8.4" x2="-12.7" y2="-8.4"/>
					<line class="st5" x1="211.1" y1="11.6" x2="-12.7" y2="11.6"/>
					<line class="st5" x1="211.1" y1="31.6" x2="-12.7" y2="31.6"/>
					<line class="st5" x1="211.1" y1="51.7" x2="-12.7" y2="51.7"/>
					<line class="st5" x1="211.1" y1="71.7" x2="-12.7" y2="71.7"/>
				</g>
			</g>
		</g>
	</g>
	<g class="st2">
		<g>
			<g>
				<path class="st6" d="M176.4,87.4h-28.7c0-26.7-21.8-48.5-48.5-48.5c-26.7,0-48.5,21.8-48.5,48.5H22c0-42.6,34.6-77.2,77.2-77.2
					C141.8,10.2,176.4,44.8,176.4,87.4z"/>
			</g>
		</g>
		<g>
			<path class="st7" d="M165.1,87.4h-24.5c0-22.9-18.6-41.4-41.4-41.4c-22.9,0-41.4,18.6-41.4,41.4H33.3c0-36.4,29.6-65.9,65.9-65.9
				S165.1,51,165.1,87.4z"/>
		</g>
		<g>
			<path class="st8" d="M165.1,87.4h-24.5c0-22.9-18.6-41.4-41.4-41.4c-22.9,0-41.4,18.6-41.4,41.4H33.3c0-36.4,29.6-65.9,65.9-65.9
				S165.1,51,165.1,87.4z"/>
		</g>
		<g>
			<g>
				<path class="st9" d="M151.2,87.4h-19.3c0-18-14.7-32.7-32.7-32.7c-18,0-32.7,14.7-32.7,32.7H47.2c0-28.7,23.3-52,52-52
					C127.9,35.3,148.1,63.8,151.2,87.4z"/>
			</g>
		</g>
	</g>
	<g class="st2">
		<path class="st9" d="M43.9,123.2c-0.9,0-1.8-0.1-2.7-0.3c-0.9-0.2-1.7-0.6-2.3-1.1c-0.7-0.5-1.2-1.3-1.6-2.2
			c-0.4-1-0.6-2.2-0.6-3.7c0-1.3,0.2-2.5,0.6-3.4c0.4-0.9,0.9-1.7,1.6-2.3c0.7-0.6,1.5-1,2.3-1.3c0.9-0.3,1.8-0.4,2.8-0.4
			c0.7,0,1.4,0.1,2,0.2c0.7,0.1,1.1,0.2,1.4,0.4l2.5,2l-2,3.3l-3.9-1.8c-0.5,0-0.9,0.1-1.3,0.4c-0.4,0.2-0.7,0.6-1,1.1
			c-0.2,0.5-0.4,1.1-0.4,1.8c0,0.9,0.1,1.6,0.4,2.1c0.3,0.5,0.7,0.8,1.2,1c0.5,0.2,1.1,0.3,1.9,0.3c0.7,0,1.3-0.1,2-0.2
			s1.2-0.3,1.6-0.5c0.5-0.2,0.8-0.4,1.1-0.5v4.1c-0.3,0.1-0.7,0.3-1.1,0.5c-0.5,0.2-1.1,0.4-1.8,0.5
			C45.7,123.1,44.9,123.2,43.9,123.2z"/>
		<path class="st9" d="M58.2,123.2c-0.9,0-1.7-0.1-2.6-0.3c-0.9-0.2-1.6-0.6-2.4-1.1c-0.7-0.5-1.3-1.3-1.7-2.2
			c-0.4-1-0.6-2.2-0.6-3.7c0-1.5,0.2-2.7,0.6-3.7c0.4-1,1-1.7,1.7-2.2c0.7-0.5,1.5-0.9,2.4-1.1c0.9-0.2,1.7-0.3,2.6-0.3
			c0.9,0,1.7,0.1,2.6,0.3c0.9,0.2,1.6,0.6,2.4,1.1c0.7,0.5,1.3,1.3,1.7,2.2c0.4,1,0.6,2.2,0.6,3.7c0,1.5-0.2,2.7-0.6,3.7
			c-0.4,1-1,1.7-1.7,2.2c-0.7,0.5-1.5,0.9-2.4,1.1C59.9,123.1,59.1,123.2,58.2,123.2z M58.2,119.2c0.9,0,1.5-0.3,2-0.8
			c0.4-0.5,0.7-1.4,0.7-2.5c0-1.1-0.2-2-0.7-2.5c-0.4-0.5-1.1-0.8-2-0.8c-1.8,0-2.6,1.1-2.6,3.3c0,1.1,0.2,2,0.7,2.5
			C56.6,118.9,57.3,119.2,58.2,119.2z"/>
		<path class="st9" d="M67.8,123v-11.1l-0.4-2l0.4-1.2h4.7l4,7.1h0.4l3.3-7.1H85l0.2,1.2l-0.2,1.9V123h-4.5l0.1-1.7v-5.7h-0.2
			l-0.8,2.1l-1.5,3.2h-3.2l-2.4-5.4h-0.2v1.6l0.2,5.7H67.8z"/>
		<path class="st9" d="M88.1,123v-11.1l-0.4-2l0.4-1.2h4.7l4,7.1h0.4l3.3-7.1h4.8l0.2,1.2l-0.2,1.9V123h-4.5l0.1-1.7v-5.7h-0.2
			l-0.8,2.1l-1.5,3.2h-3.2l-2.4-5.4h-0.2v1.6l0.2,5.7H88.1z"/>
		<path class="st9" d="M108.4,123l-0.4-1.2l0.4-2v-11.1h10.4l1,0.6l-1.3,3.4l-1.8-0.2h-3.8v1.6h5v3.3h-2.8l-2.2-0.2v1.9h5.6l2.4,2.6
			l-1.2,1.3H108.4z"/>
		<path class="st9" d="M122.5,123v-11.1l-0.4-2l0.4-1.2h7.3c1.1,0,2,0.2,2.8,0.5c0.8,0.4,1.4,0.9,1.8,1.7c0.4,0.8,0.6,1.8,0.6,3.1
			c0,1.2-0.2,2.1-0.6,2.9c-0.4,0.8-1,1.3-1.7,1.7l0.3,0.3l1.4,1.9l1.2,1v1.2h-5.4l-2.2-3.7H127v0.4l0.2,2L127,123H122.5z M127,115.5
			h1.2c0.5,0,0.9,0,1.2-0.1c0.3,0,0.6-0.2,0.8-0.4c0.2-0.2,0.3-0.6,0.3-1c0-0.5-0.1-0.9-0.3-1.1c-0.2-0.2-0.5-0.3-0.8-0.4
			s-0.8-0.1-1.2-0.1h-1.3L127,115.5z"/>
		<path class="st9" d="M143.7,123.2c-0.9,0-1.8-0.1-2.7-0.3c-0.9-0.2-1.7-0.6-2.3-1.1c-0.7-0.5-1.2-1.3-1.6-2.2
			c-0.4-1-0.6-2.2-0.6-3.7c0-1.3,0.2-2.5,0.6-3.4c0.4-0.9,0.9-1.7,1.6-2.3c0.7-0.6,1.5-1,2.3-1.3c0.9-0.3,1.8-0.4,2.8-0.4
			c0.7,0,1.4,0.1,2,0.2c0.7,0.1,1.1,0.2,1.4,0.4l2.5,2l-2,3.3l-3.9-1.8c-0.5,0-0.9,0.1-1.3,0.4c-0.4,0.2-0.7,0.6-1,1.1
			c-0.2,0.5-0.4,1.1-0.4,1.8c0,0.9,0.1,1.6,0.4,2.1c0.3,0.5,0.7,0.8,1.2,1c0.5,0.2,1.1,0.3,1.9,0.3c0.7,0,1.3-0.1,2-0.2
			c0.6-0.1,1.2-0.3,1.6-0.5c0.5-0.2,0.8-0.4,1.1-0.5v4.1c-0.3,0.1-0.7,0.3-1.1,0.5c-0.5,0.2-1.1,0.4-1.8,0.5
			C145.5,123.1,144.7,123.2,143.7,123.2z"/>
		<path class="st9" d="M151.8,123l-0.4-1.2l0.4-2v-11.1h10.4l1,0.6l-1.3,3.4l-1.8-0.2h-3.8v1.6h5v3.3h-2.8l-2.2-0.2v1.9h5.6l2.4,2.6
			l-1.2,1.3H151.8z"/>
	</g>
	<g class="st2">
		<path class="st9" d="M43.3,106.3V95.2l-0.4-2l0.4-1.2h4.7l4,7.1h0.4l3.3-7.1h4.8l0.2,1.2l-0.2,1.9v11.2h-4.5l0.1-1.7V99h-0.2
			l-0.8,2.1l-1.5,3.2h-3.2L48.1,99h-0.2v1.6l0.2,5.7H43.3z"/>
		<path class="st9" d="M62.2,106.3l1-3.4v-2.6l1.5-0.6l2.8-7.7h6.1l3.5,9.1l1.6,2.9v2.4h-4.4l-1-3h-5.5l-0.9,3H62.2z M69.1,99.8h3
			l-1.3-4h-0.4L69.1,99.8z"/>
		<path class="st9" d="M80.4,106.3V95.2l-0.4-2l0.4-1.2h6.9c1,0,1.9,0.1,2.8,0.3c0.9,0.2,1.7,0.5,2.4,1s1.3,1.2,1.7,2.1
			c0.4,0.9,0.6,2.1,0.6,3.6c0,1.5-0.2,2.7-0.6,3.7c-0.4,1-1,1.7-1.7,2.2c-0.7,0.5-1.5,0.9-2.4,1.1c-0.9,0.2-1.8,0.3-2.8,0.3H80.4z
			 M84.9,102.5h1.5c0.8,0,1.5-0.1,2-0.3c0.5-0.2,1-0.5,1.2-1c0.3-0.5,0.4-1.2,0.4-2.2c0-1-0.1-1.7-0.4-2.1c-0.3-0.5-0.7-0.7-1.3-0.9
			c-0.5-0.1-1.2-0.2-2-0.2h-1.5V102.5z"/>
		<path class="st9" d="M97.3,106.3l-0.4-1.2l0.4-2V92h10.4l1,0.6l-1.3,3.4l-1.8-0.2h-3.8v1.6h5v3.3H104l-2.2-0.2v1.9h5.6l2.4,2.6
			l-1.2,1.3H97.3z"/>
		<path class="st9" d="M116.3,106.3V95.3l-0.4-2.1l0.4-1.2h10.4l1,0.6l-1.3,3.4l-1.8-0.2h-4l0.2,1.6h5v3.3h-2.9l-2.2-0.2v2.5l0.2,2
			l-0.2,1.2H116.3z"/>
		<path class="st9" d="M135.3,106.5c-0.9,0-1.7-0.1-2.6-0.3c-0.9-0.2-1.6-0.6-2.4-1.1c-0.7-0.5-1.3-1.3-1.7-2.2
			c-0.4-1-0.6-2.2-0.6-3.7c0-1.5,0.2-2.7,0.6-3.7c0.4-1,1-1.7,1.7-2.2c0.7-0.5,1.5-0.9,2.4-1.1c0.9-0.2,1.7-0.3,2.6-0.3
			c0.9,0,1.7,0.1,2.6,0.3c0.9,0.2,1.6,0.6,2.4,1.1c0.7,0.5,1.3,1.3,1.7,2.2c0.4,1,0.6,2.2,0.6,3.7c0,1.5-0.2,2.7-0.6,3.7
			c-0.4,1-1,1.7-1.7,2.2c-0.7,0.5-1.5,0.9-2.4,1.1C137,106.4,136.2,106.5,135.3,106.5z M135.3,102.5c0.9,0,1.5-0.3,2-0.8
			c0.4-0.5,0.7-1.4,0.7-2.5c0-1.1-0.2-2-0.7-2.5c-0.4-0.5-1.1-0.8-2-0.8c-1.8,0-2.6,1.1-2.6,3.3c0,1.1,0.2,2,0.7,2.5
			C133.8,102.2,134.4,102.5,135.3,102.5z"/>
		<path class="st9" d="M144.9,106.3V95.2l-0.4-2l0.4-1.2h7.3c1.1,0,2,0.2,2.8,0.5c0.8,0.4,1.4,0.9,1.8,1.7c0.4,0.8,0.6,1.8,0.6,3.1
			c0,1.2-0.2,2.1-0.6,2.9s-1,1.3-1.7,1.7l0.3,0.3l1.4,1.9l1.2,1v1.2h-5.4l-2.2-3.7h-1.1v0.4l0.2,2l-0.2,1.2H144.9z M149.4,98.8h1.2
			c0.5,0,0.9,0,1.2-0.1s0.6-0.2,0.8-0.4c0.2-0.2,0.3-0.6,0.3-1c0-0.5-0.1-0.9-0.3-1.1c-0.2-0.2-0.5-0.3-0.8-0.4
			c-0.4,0-0.8-0.1-1.2-0.1h-1.3L149.4,98.8z"/>
	</g>
</g>
<g>
	<path class="st9" d="M185.5,127.6H13c-7.2,0-13-5.8-13-13V13C0,5.8,5.8,0,13,0h172.5c7.2,0,13,5.8,13,13v101.6
		C198.4,121.8,192.6,127.6,185.5,127.6z"/>
	<g>
		<path class="st8" d="M5.9,81.6V11.8c0-3.3,2.6-5.9,5.9-5.9h174.7c3.3,0,5.9,2.6,5.9,5.9v69.8c0,3.3-2.6,5.9-5.9,5.9H11.8
			C8.6,87.6,5.9,84.9,5.9,81.6z"/>
		<g>
			<defs>
				<path id="SVGID_7_" d="M5.9,81.6V11.8c0-3.3,2.6-5.9,5.9-5.9h174.7c3.3,0,5.9,2.6,5.9,5.9v69.8c0,3.3-2.6,5.9-5.9,5.9H11.8
					C8.6,87.6,5.9,84.9,5.9,81.6z"/>
			</defs>
			<clipPath id="SVGID_8_">
				<use xlink:href="#SVGID_7_"  style="overflow:visible;"/>
			</clipPath>
			<g class="st13">
				<g>
					<line class="st14" x1="19.1" y1="-9" x2="19.1" y2="128"/>
					<line class="st14" x1="39.1" y1="-9" x2="39.1" y2="128"/>
					<line class="st14" x1="59.2" y1="-9" x2="59.2" y2="128"/>
					<line class="st14" x1="79.2" y1="-9" x2="79.2" y2="128"/>
					<line class="st14" x1="99.2" y1="-9" x2="99.2" y2="128"/>
					<line class="st14" x1="119.2" y1="-9" x2="119.2" y2="128"/>
					<line class="st14" x1="139.3" y1="-9" x2="139.3" y2="128"/>
					<line class="st14" x1="159.3" y1="-9" x2="159.3" y2="128"/>
					<line class="st14" x1="179.3" y1="-9" x2="179.3" y2="128"/>
				</g>
				<g>
					<line class="st14" x1="211.1" y1="-8.2" x2="-12.7" y2="-8.2"/>
					<line class="st14" x1="211.1" y1="11.8" x2="-12.7" y2="11.8"/>
					<line class="st14" x1="211.1" y1="31.8" x2="-12.7" y2="31.8"/>
					<line class="st14" x1="211.1" y1="51.9" x2="-12.7" y2="51.9"/>
					<line class="st14" x1="211.1" y1="71.9" x2="-12.7" y2="71.9"/>
				</g>
			</g>
		</g>
	</g>
	<g>
		<g>
			<g>
				<path class="st6" d="M176.4,87.6h-28.7C147.7,60.8,126,39,99.2,39c-26.7,0-48.5,21.8-48.5,48.5H22C22,45,56.7,10.4,99.2,10.4
					C141.8,10.4,176.4,45,176.4,87.6z"/>
			</g>
		</g>
		<g>
			<path class="st7" d="M165.1,87.6h-24.5c0-22.9-18.6-41.4-41.4-41.4c-22.9,0-41.4,18.6-41.4,41.4H33.3c0-36.4,29.6-65.9,65.9-65.9
				S165.1,51.2,165.1,87.6z"/>
		</g>
		<g>
			<path class="st8" d="M165.1,87.6h-24.5c0-22.9-18.6-41.4-41.4-41.4c-22.9,0-41.4,18.6-41.4,41.4H33.3c0-36.4,29.6-65.9,65.9-65.9
				S165.1,51.2,165.1,87.6z"/>
		</g>
		<g>
			<g>
				<path class="st9" d="M151.2,87.6h-19.3c0-18-14.7-32.7-32.7-32.7c-18,0-32.7,14.7-32.7,32.7H47.2c0-28.7,23.3-52,52-52
					C127.9,35.5,148.1,64,151.2,87.6z"/>
			</g>
		</g>
	</g>
	<g>
		<g>
			<path class="st6" d="M13.3,117.6v-14.8l-0.5-2.7l0.5-1.6h10.3c2,0,3.7,0.4,4.9,1.2c1.2,0.8,1.8,2,1.8,3.6c0,0.9-0.2,1.6-0.5,2.2
				c-0.3,0.6-0.7,1.1-1.2,1.5c0.6,0.1,1.2,0.4,1.7,0.8c0.5,0.4,1,0.9,1.3,1.5c0.3,0.6,0.5,1.4,0.5,2.4c0,1.9-0.6,3.4-1.7,4.4
				s-2.9,1.6-5.3,1.6H13.3z M19.3,105.9h3.2c0.6,0,1.1-0.1,1.3-0.3c0.3-0.2,0.4-0.5,0.4-0.9c0-0.4-0.2-0.7-0.6-0.9
				c-0.4-0.2-0.9-0.3-1.4-0.3h-2.9V105.9z M19.3,112.4h4.6c0.7,0,1.2-0.1,1.5-0.3c0.3-0.2,0.4-0.5,0.4-0.9c0-0.9-0.6-1.3-1.7-1.3
				h-4.9V112.4z"/>
			<path class="st6" d="M45.1,117.9c-1.6,0-3-0.1-4.3-0.4c-1.3-0.3-2.5-0.8-3.4-1.5c-1-0.7-1.7-1.7-2.3-3s-0.8-2.9-0.8-4.9
				c0-2,0.3-3.6,0.8-4.9c0.6-1.3,1.3-2.3,2.3-3c1-0.7,2.1-1.2,3.3-1.5c1.2-0.3,2.5-0.4,3.8-0.4c0.9,0,1.7,0,2.4,0.1
				c0.7,0.1,1.4,0.2,2,0.4l3.7,2.1l-1.9,4.8l-6-1.8c-0.8,0-1.5,0.1-2.1,0.4c-0.7,0.2-1.2,0.7-1.6,1.3c-0.4,0.6-0.6,1.5-0.6,2.6
				c0,1.7,0.4,2.9,1.1,3.6c0.7,0.7,1.8,1,3.2,1c0.5,0,1,0,1.3-0.1c0.3-0.1,0.6-0.1,0.9-0.2v-1.5h-2.4v-4.3h8.6l0.3,1.6l-0.6,2.8v5.7
				c-0.2,0.1-0.6,0.2-1.3,0.4c-0.7,0.2-1.6,0.4-2.7,0.5C47.8,117.8,46.5,117.9,45.1,117.9z"/>
			<path class="st6" d="M63,117.6v-14.8l-0.5-2.7l0.5-1.6h9.8c1.5,0,2.7,0.2,3.8,0.7c1,0.5,1.9,1.2,2.4,2.3c0.6,1,0.8,2.4,0.8,4.1
				c0,1.6-0.3,2.9-0.8,3.9c-0.5,1-1.3,1.8-2.3,2.3l0.5,0.4l1.9,2.5l1.5,1.4v1.6h-7.2l-3-5h-1.4v0.6l0.3,2.7l-0.3,1.7H63z
				 M68.9,107.6h1.6c0.6,0,1.2,0,1.6-0.1c0.5-0.1,0.8-0.2,1.1-0.5c0.3-0.3,0.4-0.7,0.4-1.4c0-0.7-0.1-1.1-0.4-1.4
				c-0.3-0.3-0.6-0.5-1.1-0.5c-0.5-0.1-1-0.1-1.7-0.1h-1.7L68.9,107.6z"/>
			<path class="st6" d="M83,117.6l-0.5-1.6l0.5-2.7V98.4h13.9l1.4,0.8l-1.8,4.6l-2.4-0.3H89v2.2h6.7v4.5h-3.7l-3-0.3v2.5h7.5
				l3.2,3.4l-1.6,1.7H83z"/>
			<path class="st6" d="M101.9,117.6v-14.8l-0.5-2.7l0.6-1.6h6.3l5.3,9.5h0.5l4.4-9.5h6.5l0.3,1.6l-0.3,2.6v14.9h-6l0.1-2.3v-7.6
				h-0.3l-1,2.8l-2,4.3h-4.3l-3.2-7.2h-0.3v2.2l0.3,7.7H101.9z"/>
			<path class="st6" d="M137.5,117.9c-1.2,0-2.3-0.1-3.5-0.4c-1.1-0.3-2.2-0.8-3.1-1.5c-0.9-0.7-1.7-1.7-2.3-3
				c-0.6-1.3-0.9-2.9-0.9-4.9c0-2,0.3-3.6,0.9-4.9c0.6-1.3,1.3-2.3,2.3-3c0.9-0.7,2-1.2,3.1-1.5c1.1-0.3,2.3-0.4,3.5-0.4
				c1.2,0,2.3,0.1,3.5,0.4c1.1,0.3,2.2,0.8,3.1,1.5c0.9,0.7,1.7,1.7,2.3,3c0.6,1.3,0.9,2.9,0.9,4.9c0,2-0.3,3.6-0.9,4.9
				c-0.6,1.3-1.3,2.3-2.3,3c-0.9,0.7-2,1.2-3.1,1.5C139.8,117.7,138.6,117.9,137.5,117.9z M137.5,112.4c1.2,0,2.1-0.4,2.7-1.1
				c0.6-0.7,0.9-1.8,0.9-3.4c0-1.5-0.3-2.6-0.9-3.4s-1.5-1.1-2.7-1.1c-2.3,0-3.5,1.5-3.5,4.4c0,1.5,0.3,2.6,0.9,3.4
				C135.4,112.1,136.3,112.4,137.5,112.4z"/>
			<path class="st6" d="M153.7,117.6l-4.9-14.9L148,100v-1.6h6.3l3.3,13.7h0.5l3.2-13.7h6.2v1.6l-0.8,2.7l-4.8,14.9H153.7z"/>
			<path class="st6" d="M170.1,117.6l-0.5-1.6l0.5-2.7V98.4H184l1.4,0.8l-1.8,4.6l-2.4-0.3h-5.1v2.2h6.7v4.5h-3.7l-3-0.3v2.5h7.5
				l3.2,3.4l-1.6,1.7H170.1z"/>
		</g>
	</g>
</g>
</svg>
