<?xml version="1.0" encoding="utf-8"?>
<!-- Generator: Adobe Illustrator 24.0.2, SVG Export Plug-In . SVG Version: 6.00 Build 0)  -->
<svg version="1.1" id="Layer_1" xmlns="http://www.w3.org/2000/svg" xmlns:xlink="http://www.w3.org/1999/xlink" x="0px" y="0px"
	 viewBox="0 0 198.4 130.4" style="enable-background:new 0 0 198.4 130.4;" xml:space="preserve">
<style type="text/css">
	.st0{display:none;}
	.st1{display:inline;fill:#2B0962;}
	.st2{display:inline;}
	.st3{fill:#905EF1;}
	.st4{clip-path:url(#SVGID_2_);}
	.st5{fill:none;stroke:#FCEEE0;stroke-miterlimit:10;}
	.st6{fill:#2B0962;}
	.st7{fill:#00CBFF;}
	.st8{fill:#AB85FA;}
	.st9{fill:#C6B5FC;}
	.st10{clip-path:url(#SVGID_4_);}
	.st11{fill:#DFD5FD;}
	.st12{clip-path:url(#SVGID_6_);}
</style>
<g class="st0">
	<path class="st1" d="M185.4,129.2H13c-7.2,0-13-5.8-13-13v-102c0-7.2,5.8-13,13-13h172.4c7.2,0,13,5.8,13,13v102
		C198.4,123.4,192.6,129.2,185.4,129.2z"/>
	<g class="st2">
		<path class="st3" d="M5.9,82.8V13.1c0-3.3,2.6-5.9,5.9-5.9h174.7c3.3,0,5.9,2.6,5.9,5.9v69.8c0,3.3-2.6,5.9-5.9,5.9H11.8
			C8.6,88.8,5.9,86.1,5.9,82.8z"/>
		<g>
			<defs>
				<path id="SVGID_1_" d="M5.9,82.8V13.1c0-3.3,2.6-5.9,5.9-5.9h174.7c3.3,0,5.9,2.6,5.9,5.9v69.8c0,3.3-2.6,5.9-5.9,5.9H11.8
					C8.6,88.8,5.9,86.1,5.9,82.8z"/>
			</defs>
			<clipPath id="SVGID_2_">
				<use xlink:href="#SVGID_1_"  style="overflow:visible;"/>
			</clipPath>
			<g class="st4">
				<g>
					<line class="st5" x1="19.1" y1="-7.8" x2="19.1" y2="129.2"/>
					<line class="st5" x1="39.1" y1="-7.8" x2="39.1" y2="129.2"/>
					<line class="st5" x1="59.2" y1="-7.8" x2="59.2" y2="129.2"/>
					<line class="st5" x1="79.2" y1="-7.8" x2="79.2" y2="129.2"/>
					<line class="st5" x1="99.2" y1="-7.8" x2="99.2" y2="129.2"/>
					<line class="st5" x1="119.2" y1="-7.8" x2="119.2" y2="129.2"/>
					<line class="st5" x1="139.3" y1="-7.8" x2="139.3" y2="129.2"/>
					<line class="st5" x1="159.3" y1="-7.8" x2="159.3" y2="129.2"/>
					<line class="st5" x1="179.3" y1="-7.8" x2="179.3" y2="129.2"/>
				</g>
				<g>
					<line class="st5" x1="211.1" y1="13" x2="-12.7" y2="13"/>
					<line class="st5" x1="211.1" y1="33.1" x2="-12.7" y2="33.1"/>
					<line class="st5" x1="211.1" y1="53.1" x2="-12.7" y2="53.1"/>
					<line class="st5" x1="211.1" y1="73.1" x2="-12.7" y2="73.1"/>
				</g>
			</g>
		</g>
	</g>
	<g class="st2">
		<g>
			<g>
				<path class="st6" d="M176.4,88.8h-28.7c0-26.7-21.8-48.5-48.5-48.5c-26.7,0-48.5,21.8-48.5,48.5H22c0-42.6,34.6-77.2,77.2-77.2
					C141.8,11.6,176.4,46.2,176.4,88.8z"/>
			</g>
		</g>
		<g>
			<path class="st7" d="M165.1,88.8h-24.5c0-22.9-18.6-41.4-41.4-41.4c-22.9,0-41.4,18.6-41.4,41.4H33.3c0-36.4,29.6-65.9,65.9-65.9
				S165.1,52.4,165.1,88.8z"/>
		</g>
		<g>
			<path class="st8" d="M165.1,88.8h-24.5c0-22.9-18.6-41.4-41.4-41.4c-22.9,0-41.4,18.6-41.4,41.4H33.3c0-36.4,29.6-65.9,65.9-65.9
				S165.1,52.4,165.1,88.8z"/>
		</g>
		<g>
			<g>
				<path class="st9" d="M151.2,88.8h-19.3c0-18-14.7-32.7-32.7-32.7c-18,0-32.7,14.7-32.7,32.7H47.2c0-28.7,23.3-52,52-52
					C127.9,36.7,148.1,65.2,151.2,88.8z"/>
			</g>
		</g>
	</g>
	<g class="st2">
		<path class="st9" d="M56,108.4c-0.9,0-1.8-0.1-2.7-0.3c-0.9-0.2-1.7-0.6-2.3-1.1c-0.7-0.5-1.2-1.3-1.6-2.2c-0.4-1-0.6-2.2-0.6-3.7
			c0-1.3,0.2-2.5,0.6-3.4c0.4-0.9,0.9-1.7,1.6-2.3c0.7-0.6,1.5-1,2.3-1.3c0.9-0.3,1.8-0.4,2.8-0.4c0.7,0,1.4,0.1,2,0.2
			c0.7,0.1,1.1,0.2,1.4,0.4l2.5,2l-2,3.3L56,97.7c-0.5,0-0.9,0.1-1.3,0.4c-0.4,0.2-0.7,0.6-1,1.1c-0.2,0.5-0.4,1.1-0.4,1.8
			c0,0.9,0.1,1.6,0.4,2.1c0.3,0.5,0.7,0.8,1.2,1c0.5,0.2,1.1,0.3,1.9,0.3c0.7,0,1.3-0.1,2-0.2c0.6-0.1,1.2-0.3,1.6-0.5
			c0.5-0.2,0.8-0.4,1.1-0.5v4.1c-0.3,0.1-0.7,0.3-1.1,0.5c-0.5,0.2-1.1,0.4-1.8,0.5C57.8,108.3,56.9,108.4,56,108.4z"/>
		<path class="st9" d="M63.4,108.2V97.1L63,95l0.4-1.2h7.3c1.1,0,2,0.2,2.8,0.5c0.8,0.4,1.4,0.9,1.8,1.7c0.4,0.8,0.6,1.8,0.6,3.1
			c0,1.2-0.2,2.1-0.6,2.9c-0.4,0.8-1,1.3-1.7,1.7L74,104l1.4,1.9l1.2,1v1.2h-5.4l-2.2-3.7h-1.1v0.4l0.2,2l-0.2,1.2H63.4z
			 M67.9,100.7h1.2c0.5,0,0.9,0,1.2-0.1s0.6-0.2,0.8-0.4s0.3-0.6,0.3-1c0-0.5-0.1-0.9-0.3-1.1c-0.2-0.2-0.5-0.3-0.8-0.4
			c-0.4,0-0.8-0.1-1.2-0.1h-1.3L67.9,100.7z"/>
		<path class="st9" d="M84,108.4c-0.9,0-1.7-0.1-2.6-0.3c-0.9-0.2-1.6-0.6-2.4-1.1c-0.7-0.5-1.3-1.3-1.7-2.2c-0.4-1-0.6-2.2-0.6-3.7
			c0-1.5,0.2-2.7,0.6-3.7c0.4-1,1-1.7,1.7-2.2c0.7-0.5,1.5-0.9,2.4-1.1c0.9-0.2,1.7-0.3,2.6-0.3c0.9,0,1.7,0.1,2.6,0.3
			c0.9,0.2,1.6,0.6,2.4,1.1c0.7,0.5,1.3,1.3,1.7,2.2c0.4,1,0.6,2.2,0.6,3.7c0,1.5-0.2,2.7-0.6,3.7c-0.4,1-1,1.7-1.7,2.2
			c-0.7,0.5-1.5,0.9-2.4,1.1C85.7,108.3,84.8,108.4,84,108.4z M84,104.3c0.9,0,1.5-0.3,2-0.8c0.4-0.5,0.7-1.4,0.7-2.5
			c0-1.1-0.2-2-0.7-2.5c-0.4-0.5-1.1-0.8-2-0.8c-1.8,0-2.6,1.1-2.6,3.3c0,1.1,0.2,2,0.7,2.5C82.4,104,83.1,104.3,84,104.3z"/>
		<path class="st9" d="M92.9,108.2V97.1l-0.4-2l0.4-1.2h7.3c1.1,0,2,0.2,2.8,0.5c0.8,0.4,1.4,0.9,1.8,1.7c0.4,0.8,0.6,1.8,0.6,3.1
			c0,1.9-0.5,3.3-1.5,4.1c-1,0.8-2.5,1.2-4.3,1.2h-2.2v0.4l0.2,2l-0.2,1.2H92.9z M97.3,100.7h1.2c0.5,0,0.9,0,1.2-0.1
			s0.6-0.2,0.8-0.4s0.3-0.6,0.3-1c0-0.5-0.1-0.9-0.3-1.1c-0.2-0.2-0.5-0.3-0.8-0.4c-0.4,0-0.8-0.1-1.2-0.1h-1.3L97.3,100.7z"/>
		<path class="st9" d="M106.6,108.2V97.1l-0.4-2l0.4-1.2h7.3c1.1,0,2,0.2,2.8,0.5c0.8,0.4,1.4,0.9,1.8,1.7c0.4,0.8,0.6,1.8,0.6,3.1
			c0,1.9-0.5,3.3-1.5,4.1c-1,0.8-2.5,1.2-4.3,1.2H111v0.4l0.2,2l-0.2,1.2H106.6z M111,100.7h1.2c0.5,0,0.9,0,1.2-0.1
			s0.6-0.2,0.8-0.4s0.3-0.6,0.3-1c0-0.5-0.1-0.9-0.3-1.1c-0.2-0.2-0.5-0.3-0.8-0.4c-0.4,0-0.8-0.1-1.2-0.1h-1.3L111,100.7z"/>
		<path class="st9" d="M120.1,108.2V97.1l-0.2-2l0.2-1.2h4.5v14.3H120.1z"/>
		<path class="st9" d="M126.7,108.2V97.1l-0.4-2l0.4-1.2h4.1l4.1,5.1l1,1.7h0.2v-6.8h4.7v1.2l-0.2,2v11.1h-4l-5.1-6.9h-0.2v1.2
			l0.2,5.7H126.7z"/>
		<path class="st9" d="M150.1,108.4c-1.2,0-2.3-0.1-3.2-0.3c-1-0.2-1.8-0.6-2.6-1.1c-0.7-0.5-1.3-1.3-1.7-2.2
			c-0.4-1-0.6-2.2-0.6-3.7c0-1.5,0.2-2.7,0.6-3.7c0.4-1,1-1.7,1.7-2.2c0.7-0.5,1.5-0.9,2.5-1.1c0.9-0.2,1.9-0.3,2.9-0.3
			c0.7,0,1.3,0,1.8,0.1s1.1,0.2,1.5,0.3l2.8,1.6l-1.4,3.6l-4.5-1.4c-0.6,0-1.1,0.1-1.6,0.3c-0.5,0.2-0.9,0.5-1.2,1
			c-0.3,0.5-0.4,1.1-0.4,2c0,1.3,0.3,2.2,0.8,2.7c0.6,0.5,1.4,0.8,2.4,0.8c0.4,0,0.7,0,1-0.1c0.3,0,0.5-0.1,0.6-0.2v-1.1h-1.8V100
			h6.4l0.2,1.2l-0.4,2.1v4.3c-0.1,0.1-0.5,0.1-1,0.3s-1.2,0.3-2,0.4C152.1,108.3,151.2,108.4,150.1,108.4z"/>
		<path class="st9" d="M46.2,125.3c-1.4,0-2.4-0.4-3.2-1.1c-0.8-0.7-1.2-1.8-1.2-3.1c0-0.7,0.1-1.3,0.3-1.8c0.2-0.5,0.5-0.9,0.9-1.2
			s0.7-0.6,1.1-0.7c0.4-0.2,0.7-0.3,1-0.4c-0.1-0.2-0.3-0.4-0.5-0.6c-0.2-0.3-0.4-0.6-0.5-1c-0.1-0.4-0.2-0.8-0.2-1.4
			c0-0.9,0.2-1.6,0.7-2.1c0.5-0.5,1.2-0.9,2-1.2c0.4-0.1,0.8-0.2,1.3-0.2s1,0,1.5,0c0.5,0,0.9,0.1,1.3,0.1c0.4,0,0.7,0.1,0.8,0.1
			l1.6,1.6l-1.2,2.5l-2-0.4c-0.4,0-0.7,0.1-0.8,0.3c-0.1,0.2-0.2,0.4-0.2,0.6c0,0.2,0.1,0.4,0.2,0.6c0.1,0.2,0.3,0.5,0.6,0.7L52,119
			l0.2-0.2l-0.5-2.1l0.2-1.2l4.8,0.4v3.1l-2.4,2.2l1.5,1.4l1.5,1.2v1.2h-4.7l-1.3-1.3c-0.3,0.2-0.7,0.5-1.1,0.7
			c-0.4,0.2-1,0.4-1.6,0.6C48,125.2,47.1,125.3,46.2,125.3z M47.2,121.4c0.4,0,0.6-0.1,0.9-0.2c0.2-0.1,0.4-0.2,0.5-0.3l-1.5-1.4
			c-0.1,0.1-0.3,0.3-0.4,0.4c-0.1,0.2-0.2,0.4-0.2,0.6c0,0.2,0.1,0.4,0.2,0.5C46.8,121.4,47,121.4,47.2,121.4z"/>
		<path class="st9" d="M60.5,124.6v-11.1l-0.4-2l0.4-1.2h7.3c1.1,0,2,0.2,2.8,0.5c0.8,0.4,1.4,0.9,1.8,1.7c0.4,0.8,0.6,1.8,0.6,3.1
			c0,1.2-0.2,2.1-0.6,2.9c-0.4,0.8-1,1.3-1.7,1.7l0.3,0.3l1.4,1.9l1.2,1v1.2h-5.4l-2.2-3.7H65v0.4l0.2,2l-0.2,1.2H60.5z M65,117.1
			h1.2c0.5,0,0.9,0,1.2-0.1c0.3,0,0.6-0.2,0.8-0.4s0.3-0.6,0.3-1c0-0.5-0.1-0.9-0.3-1.1c-0.2-0.2-0.5-0.3-0.8-0.4
			c-0.4,0-0.8-0.1-1.2-0.1h-1.3L65,117.1z"/>
		<path class="st9" d="M74.8,124.6l-0.4-1.2l0.4-2v-11.1h10.4l1,0.6l-1.3,3.4l-1.8-0.2h-3.8v1.6h5v3.3h-2.8l-2.2-0.2v1.9h5.6
			l2.4,2.6l-1.2,1.3H74.8z"/>
		<path class="st9" d="M93.3,124.8c-0.7,0-1.5-0.1-2.2-0.2c-0.7-0.1-1.4-0.3-1.9-0.5s-1-0.4-1.2-0.6v-4.2c0.5,0.3,1.1,0.5,1.7,0.8
			c0.6,0.2,1.3,0.4,1.9,0.5c0.7,0.1,1.3,0.2,1.9,0.2c0.8,0,1.2-0.2,1.2-0.6c0-0.2-0.1-0.3-0.3-0.5c-0.2-0.1-0.5-0.3-0.9-0.4
			c-0.4-0.1-1-0.3-1.8-0.6c-0.9-0.3-1.7-0.6-2.3-0.9c-0.6-0.3-1.1-0.7-1.4-1.2c-0.3-0.5-0.5-1.1-0.5-1.9c0-1.4,0.6-2.5,1.7-3.4
			c1.1-0.9,2.8-1.3,4.9-1.3c0.4,0,0.9,0,1.4,0.1c0.5,0,0.9,0.1,1.2,0.1l2.5,1.7l-1,3.1l-5.2-1.3c-0.5,0-0.8,0.2-0.8,0.5
			c0,0.3,0.2,0.5,0.5,0.7c0.3,0.2,1,0.4,1.9,0.7c1.2,0.4,2.2,0.8,2.9,1.2c0.7,0.4,1.2,0.9,1.5,1.4s0.5,1.2,0.5,1.9
			c0,1.4-0.5,2.4-1.6,3.3C96.9,124.4,95.4,124.8,93.3,124.8z"/>
		<path class="st9" d="M101.1,124.6v-11.1l-0.2-2l0.2-1.2h4.5v14.3H101.1z"/>
		<path class="st9" d="M107.2,124.6l-0.6-1.2l6.3-9.3h-5.7v-3.8h11.7v2.4l-5.3,8.1h0.6l4.7-0.4v4.2H107.2z"/>
		<path class="st9" d="M120.2,124.6v-11.1l-0.2-2l0.2-1.2h4.5v14.3H120.2z"/>
		<path class="st9" d="M126.9,124.6v-11.1l-0.4-2l0.4-1.2h4.1l4.1,5.1l1,1.7h0.2v-6.8h4.7v1.2l-0.2,2v11.1h-4l-5.1-6.9h-0.2v1.2
			l0.2,5.7H126.9z"/>
		<path class="st9" d="M150.2,124.8c-1.2,0-2.3-0.1-3.2-0.3c-1-0.2-1.8-0.6-2.6-1.1c-0.7-0.5-1.3-1.3-1.7-2.2
			c-0.4-1-0.6-2.2-0.6-3.7c0-1.5,0.2-2.7,0.6-3.7c0.4-1,1-1.7,1.7-2.2c0.7-0.5,1.5-0.9,2.5-1.1c0.9-0.2,1.9-0.3,2.9-0.3
			c0.7,0,1.3,0,1.8,0.1s1.1,0.2,1.5,0.3l2.8,1.6l-1.4,3.6l-4.5-1.4c-0.6,0-1.1,0.1-1.6,0.3c-0.5,0.2-0.9,0.5-1.2,1
			c-0.3,0.5-0.4,1.1-0.4,2c0,1.3,0.3,2.2,0.8,2.7c0.6,0.5,1.4,0.8,2.4,0.8c0.4,0,0.7,0,1-0.1c0.3,0,0.5-0.1,0.6-0.2v-1.1h-1.8v-3.2
			h6.4l0.2,1.2l-0.4,2.1v4.3c-0.1,0.1-0.5,0.1-1,0.3s-1.2,0.3-2,0.4C152.2,124.7,151.3,124.8,150.2,124.8z"/>
	</g>
</g>
<g class="st0">
	<path class="st1" d="M185.4,129.2H13c-7.2,0-13-5.8-13-13v-102c0-7.2,5.8-13,13-13h172.4c7.2,0,13,5.8,13,13v102
		C198.4,123.4,192.6,129.2,185.4,129.2z"/>
	<g class="st2">
		<path class="st3" d="M5.9,82.8V13.1c0-3.3,2.6-5.9,5.9-5.9h174.7c3.3,0,5.9,2.6,5.9,5.9v69.8c0,3.3-2.6,5.9-5.9,5.9H11.8
			C8.6,88.8,5.9,86.1,5.9,82.8z"/>
		<g>
			<defs>
				<path id="SVGID_3_" d="M5.9,82.8V13.1c0-3.3,2.6-5.9,5.9-5.9h174.7c3.3,0,5.9,2.6,5.9,5.9v69.8c0,3.3-2.6,5.9-5.9,5.9H11.8
					C8.6,88.8,5.9,86.1,5.9,82.8z"/>
			</defs>
			<clipPath id="SVGID_4_">
				<use xlink:href="#SVGID_3_"  style="overflow:visible;"/>
			</clipPath>
			<g class="st10">
				<g>
					<line class="st5" x1="19.1" y1="-7.8" x2="19.1" y2="129.2"/>
					<line class="st5" x1="39.1" y1="-7.8" x2="39.1" y2="129.2"/>
					<line class="st5" x1="59.2" y1="-7.8" x2="59.2" y2="129.2"/>
					<line class="st5" x1="79.2" y1="-7.8" x2="79.2" y2="129.2"/>
					<line class="st5" x1="99.2" y1="-7.8" x2="99.2" y2="129.2"/>
					<line class="st5" x1="119.2" y1="-7.8" x2="119.2" y2="129.2"/>
					<line class="st5" x1="139.3" y1="-7.8" x2="139.3" y2="129.2"/>
					<line class="st5" x1="159.3" y1="-7.8" x2="159.3" y2="129.2"/>
					<line class="st5" x1="179.3" y1="-7.8" x2="179.3" y2="129.2"/>
				</g>
				<g>
					<line class="st5" x1="211.1" y1="13" x2="-12.7" y2="13"/>
					<line class="st5" x1="211.1" y1="33.1" x2="-12.7" y2="33.1"/>
					<line class="st5" x1="211.1" y1="53.1" x2="-12.7" y2="53.1"/>
					<line class="st5" x1="211.1" y1="73.1" x2="-12.7" y2="73.1"/>
				</g>
			</g>
		</g>
	</g>
	<g class="st2">
		<g>
			<g>
				<path class="st6" d="M176.4,88.8h-28.7c0-26.7-21.8-48.5-48.5-48.5c-26.7,0-48.5,21.8-48.5,48.5H22c0-42.6,34.6-77.2,77.2-77.2
					C141.8,11.6,176.4,46.2,176.4,88.8z"/>
			</g>
		</g>
		<g>
			<path class="st7" d="M165.1,88.8h-24.5c0-22.9-18.6-41.4-41.4-41.4c-22.9,0-41.4,18.6-41.4,41.4H33.3c0-36.4,29.6-65.9,65.9-65.9
				S165.1,52.4,165.1,88.8z"/>
		</g>
		<g>
			<path class="st8" d="M165.1,88.8h-24.5c0-22.9-18.6-41.4-41.4-41.4c-22.9,0-41.4,18.6-41.4,41.4H33.3c0-36.4,29.6-65.9,65.9-65.9
				S165.1,52.4,165.1,88.8z"/>
		</g>
		<g>
			<g>
				<path class="st9" d="M151.2,88.8h-19.3c0-18-14.7-32.7-32.7-32.7c-18,0-32.7,14.7-32.7,32.7H47.2c0-28.7,23.3-52,52-52
					C127.9,36.7,148.1,65.2,151.2,88.8z"/>
			</g>
		</g>
	</g>
	<g class="st2">
		<g>
			<path class="st11" d="M7.9,115.9v-9.6l-0.3-1.7l0.3-1h6.6c1.3,0,2.4,0.3,3.2,0.8c0.8,0.5,1.2,1.3,1.2,2.3c0,0.6-0.1,1-0.3,1.4
				s-0.5,0.7-0.8,0.9c0.4,0.1,0.8,0.3,1.1,0.5s0.6,0.6,0.9,1c0.2,0.4,0.3,0.9,0.3,1.5c0,1.2-0.4,2.2-1.1,2.9c-0.7,0.7-1.9,1-3.4,1
				H7.9z M11.8,108.4h2.1c0.4,0,0.7-0.1,0.9-0.2s0.3-0.3,0.3-0.6c0-0.3-0.1-0.5-0.4-0.6c-0.3-0.1-0.6-0.2-0.9-0.2h-1.9V108.4z
				 M11.8,112.6h3c0.5,0,0.8-0.1,1-0.2s0.3-0.3,0.3-0.6c0-0.6-0.4-0.8-1.1-0.8h-3.1V112.6z"/>
			<path class="st11" d="M27.3,116.1c-2,0-3.5-0.4-4.4-1.2c-0.9-0.8-1.3-2.1-1.3-4v-4.5l0-1.8l0-1h3.9v6.5c0,0.5,0,1,0.1,1.4
				c0.1,0.4,0.3,0.7,0.5,1c0.3,0.2,0.7,0.3,1.2,0.3c0.6,0,1-0.1,1.2-0.3c0.3-0.2,0.4-0.5,0.5-0.9c0.1-0.4,0.1-0.9,0.1-1.5v-6.5H33
				v7.4c0,1.2-0.2,2.2-0.6,2.9c-0.4,0.8-1,1.3-1.8,1.7C29.8,115.9,28.7,116.1,27.3,116.1z"/>
			<path class="st11" d="M34.9,115.9v-9.6l-0.2-1.7l0.2-1h3.9v12.4H34.9z"/>
			<path class="st11" d="M41.1,115.9l-0.3-1l0.3-1.7v-9.6h3.8v6.7l-0.2,2.4h0.3l3.1-0.2l1.2-0.2l1.5,2.6l-0.9,1.1H41.1z"/>
			<path class="st11" d="M52.2,115.9v-9.6l-0.3-1.7l0.3-1.1h5.9c0.8,0,1.6,0.1,2.4,0.2s1.5,0.5,2.1,0.9c0.6,0.4,1.1,1,1.5,1.9
				c0.4,0.8,0.5,1.8,0.5,3.1c0,1.3-0.2,2.3-0.5,3.2c-0.4,0.8-0.9,1.5-1.5,1.9c-0.6,0.5-1.3,0.8-2.1,0.9c-0.8,0.2-1.6,0.3-2.4,0.3
				H52.2z M56.1,112.6h1.3c0.7,0,1.3-0.1,1.7-0.2c0.5-0.2,0.8-0.4,1.1-0.9c0.2-0.4,0.4-1,0.4-1.9c0-0.8-0.1-1.4-0.4-1.8
				c-0.3-0.4-0.6-0.6-1.1-0.8c-0.5-0.1-1-0.2-1.7-0.2h-1.3V112.6z"/>
			<path class="st11" d="M70.6,115.9v-9.5l-0.3-1.8l0.3-1h9l0.9,0.5l-1.2,3l-1.6-0.2h-3.5l0.2,1.4h4.3v2.9h-2.5l-1.9-0.2v2.2
				l0.2,1.7l-0.2,1H70.6z"/>
			<path class="st11" d="M86.8,116.1c-0.7,0-1.5-0.1-2.2-0.3s-1.4-0.5-2-1c-0.6-0.5-1.1-1.1-1.5-1.9c-0.4-0.8-0.6-1.9-0.6-3.2
				c0-1.3,0.2-2.4,0.6-3.2c0.4-0.8,0.9-1.5,1.5-1.9c0.6-0.5,1.3-0.8,2-1s1.5-0.3,2.2-0.3c0.7,0,1.5,0.1,2.2,0.3c0.7,0.2,1.4,0.5,2,1
				c0.6,0.5,1.1,1.1,1.5,1.9c0.4,0.8,0.6,1.9,0.6,3.2c0,1.3-0.2,2.3-0.6,3.2c-0.4,0.8-0.9,1.5-1.5,1.9c-0.6,0.5-1.3,0.8-2,1
				C88.3,116,87.5,116.1,86.8,116.1z M86.8,112.6c0.8,0,1.3-0.2,1.7-0.7s0.6-1.2,0.6-2.2c0-1-0.2-1.7-0.6-2.2
				c-0.4-0.5-1-0.7-1.7-0.7c-1.5,0-2.3,1-2.3,2.9c0,1,0.2,1.7,0.6,2.2C85.5,112.4,86,112.6,86.8,112.6z"/>
			<path class="st11" d="M94.9,115.9v-9.6l-0.3-1.8l0.3-1h6.3c0.9,0,1.8,0.2,2.4,0.5c0.7,0.3,1.2,0.8,1.6,1.5
				c0.4,0.7,0.5,1.6,0.5,2.6c0,1-0.2,1.8-0.5,2.5c-0.3,0.7-0.8,1.1-1.5,1.5l0.3,0.2l1.2,1.6l1,0.9v1h-4.6l-1.9-3.2h-0.9v0.4l0.2,1.7
				l-0.2,1.1H94.9z M98.7,109.5h1c0.4,0,0.8,0,1.1-0.1c0.3,0,0.5-0.1,0.7-0.3c0.2-0.2,0.2-0.5,0.2-0.9c0-0.4-0.1-0.7-0.3-0.9
				c-0.2-0.2-0.4-0.3-0.7-0.3c-0.3,0-0.7-0.1-1.1-0.1h-1.1L98.7,109.5z"/>
			<path class="st11" d="M111.6,115.9v-9.6l-0.3-1.7l0.3-1h6.6c1.3,0,2.4,0.3,3.2,0.8c0.8,0.5,1.2,1.3,1.2,2.3c0,0.6-0.1,1-0.3,1.4
				c-0.2,0.4-0.5,0.7-0.8,0.9c0.4,0.1,0.8,0.3,1.1,0.5c0.3,0.3,0.6,0.6,0.9,1c0.2,0.4,0.3,0.9,0.3,1.5c0,1.2-0.4,2.2-1.1,2.9
				c-0.7,0.7-1.9,1-3.4,1H111.6z M115.5,108.4h2.1c0.4,0,0.7-0.1,0.9-0.2s0.3-0.3,0.3-0.6c0-0.3-0.1-0.5-0.4-0.6s-0.6-0.2-0.9-0.2
				h-1.9V108.4z M115.5,112.6h3c0.5,0,0.8-0.1,1-0.2s0.3-0.3,0.3-0.6c0-0.6-0.4-0.8-1.1-0.8h-3.1V112.6z"/>
			<path class="st11" d="M125.8,115.9v-9.6l-0.3-1.8l0.3-1h6.3c0.9,0,1.8,0.2,2.4,0.5c0.7,0.3,1.2,0.8,1.6,1.5
				c0.4,0.7,0.5,1.6,0.5,2.6c0,1-0.2,1.8-0.5,2.5c-0.3,0.7-0.8,1.1-1.5,1.5l0.3,0.2l1.2,1.6l1,0.9v1h-4.6l-1.9-3.2h-0.9v0.4l0.2,1.7
				l-0.2,1.1H125.8z M129.6,109.5h1c0.4,0,0.8,0,1.1-0.1c0.3,0,0.5-0.1,0.7-0.3c0.2-0.2,0.2-0.5,0.2-0.9c0-0.4-0.1-0.7-0.3-0.9
				c-0.2-0.2-0.4-0.3-0.7-0.3c-0.3,0-0.7-0.1-1.1-0.1h-1.1L129.6,109.5z"/>
			<path class="st11" d="M137.2,115.9l0.8-3v-2.2l1.3-0.5l2.4-6.7h5.3l3,7.8l1.3,2.5v2h-3.8l-0.9-2.6H142l-0.8,2.6H137.2z
				 M143.2,110.3h2.6l-1.2-3.5h-0.4L143.2,110.3z"/>
			<path class="st11" d="M152.8,115.9v-9.6l-0.3-1.7l0.3-1h3.5l3.5,4.4l0.8,1.4h0.2v-5.9h4v1l-0.2,1.7v9.6h-3.5l-4.4-6h-0.2v1
				l0.2,4.9H152.8z"/>
			<path class="st11" d="M167.2,115.9v-9.6l-0.3-1.7l0.3-1.1h5.9c0.8,0,1.6,0.1,2.4,0.2s1.5,0.5,2.1,0.9c0.6,0.4,1.1,1,1.5,1.9
				c0.4,0.8,0.5,1.8,0.5,3.1c0,1.3-0.2,2.3-0.5,3.2c-0.4,0.8-0.9,1.5-1.5,1.9c-0.6,0.5-1.3,0.8-2.1,0.9c-0.8,0.2-1.6,0.3-2.4,0.3
				H167.2z M171,112.6h1.3c0.7,0,1.3-0.1,1.7-0.2c0.5-0.2,0.8-0.4,1.1-0.9c0.2-0.4,0.4-1,0.4-1.9c0-0.8-0.1-1.4-0.4-1.8
				c-0.3-0.4-0.6-0.6-1.1-0.8c-0.5-0.1-1-0.2-1.7-0.2H171V112.6z"/>
			<path class="st11" d="M185.8,116.1c-0.6,0-1.3-0.1-1.9-0.2c-0.6-0.1-1.2-0.3-1.6-0.4c-0.5-0.2-0.8-0.3-1-0.5v-3.7
				c0.4,0.2,0.9,0.5,1.5,0.7c0.5,0.2,1.1,0.4,1.7,0.5c0.6,0.1,1.1,0.2,1.6,0.2c0.7,0,1.1-0.2,1.1-0.5c0-0.2-0.1-0.3-0.2-0.4
				c-0.1-0.1-0.4-0.2-0.8-0.4c-0.4-0.1-0.9-0.3-1.5-0.5c-0.8-0.2-1.4-0.5-2-0.8c-0.5-0.3-1-0.6-1.2-1c-0.3-0.4-0.4-1-0.4-1.7
				c0-1.2,0.5-2.2,1.5-2.9c1-0.7,2.4-1.1,4.2-1.1c0.4,0,0.8,0,1.2,0c0.4,0,0.8,0.1,1,0.1l2.1,1.4l-0.9,2.7l-4.5-1.1
				c-0.5,0-0.7,0.2-0.7,0.5c0,0.2,0.1,0.4,0.4,0.6c0.3,0.2,0.8,0.4,1.6,0.6c1,0.3,1.9,0.7,2.5,1.1c0.6,0.4,1.1,0.8,1.3,1.2
				c0.3,0.5,0.4,1,0.4,1.7c0,1.2-0.4,2.1-1.3,2.8C188.9,115.8,187.6,116.1,185.8,116.1z"/>
		</g>
	</g>
</g>
<g>
	<path class="st6" d="M185.4,129.2H13c-7.2,0-13-5.8-13-13v-102c0-7.2,5.8-13,13-13h172.4c7.2,0,13,5.8,13,13v102
		C198.4,123.4,192.6,129.2,185.4,129.2z"/>
	<g>
		<path class="st3" d="M5.9,82.8V13.1c0-3.3,2.6-5.9,5.9-5.9h174.7c3.3,0,5.9,2.6,5.9,5.9v69.8c0,3.3-2.6,5.9-5.9,5.9H11.8
			C8.6,88.8,5.9,86.1,5.9,82.8z"/>
		<g>
			<defs>
				<path id="SVGID_5_" d="M5.9,82.8V13.1c0-3.3,2.6-5.9,5.9-5.9h174.7c3.3,0,5.9,2.6,5.9,5.9v69.8c0,3.3-2.6,5.9-5.9,5.9H11.8
					C8.6,88.8,5.9,86.1,5.9,82.8z"/>
			</defs>
			<clipPath id="SVGID_6_">
				<use xlink:href="#SVGID_5_"  style="overflow:visible;"/>
			</clipPath>
			<g class="st12">
				<g>
					<line class="st5" x1="19.1" y1="-7.8" x2="19.1" y2="129.2"/>
					<line class="st5" x1="39.1" y1="-7.8" x2="39.1" y2="129.2"/>
					<line class="st5" x1="59.2" y1="-7.8" x2="59.2" y2="129.2"/>
					<line class="st5" x1="79.2" y1="-7.8" x2="79.2" y2="129.2"/>
					<line class="st5" x1="99.2" y1="-7.8" x2="99.2" y2="129.2"/>
					<line class="st5" x1="119.2" y1="-7.8" x2="119.2" y2="129.2"/>
					<line class="st5" x1="139.3" y1="-7.8" x2="139.3" y2="129.2"/>
					<line class="st5" x1="159.3" y1="-7.8" x2="159.3" y2="129.2"/>
					<line class="st5" x1="179.3" y1="-7.8" x2="179.3" y2="129.2"/>
				</g>
				<g>
					<line class="st5" x1="211.1" y1="13" x2="-12.7" y2="13"/>
					<line class="st5" x1="211.1" y1="33.1" x2="-12.7" y2="33.1"/>
					<line class="st5" x1="211.1" y1="53.1" x2="-12.7" y2="53.1"/>
					<line class="st5" x1="211.1" y1="73.1" x2="-12.7" y2="73.1"/>
				</g>
			</g>
		</g>
	</g>
	<g>
		<g>
			<g>
				<path class="st6" d="M176.4,88.8h-28.7c0-26.7-21.8-48.5-48.5-48.5c-26.7,0-48.5,21.8-48.5,48.5H22c0-42.6,34.6-77.2,77.2-77.2
					C141.8,11.6,176.4,46.2,176.4,88.8z"/>
			</g>
		</g>
		<g>
			<path class="st7" d="M165.1,88.8h-24.5c0-22.9-18.6-41.4-41.4-41.4c-22.9,0-41.4,18.6-41.4,41.4H33.3c0-36.4,29.6-65.9,65.9-65.9
				S165.1,52.4,165.1,88.8z"/>
		</g>
		<g>
			<path class="st8" d="M165.1,88.8h-24.5c0-22.9-18.6-41.4-41.4-41.4c-22.9,0-41.4,18.6-41.4,41.4H33.3c0-36.4,29.6-65.9,65.9-65.9
				S165.1,52.4,165.1,88.8z"/>
		</g>
		<g>
			<g>
				<path class="st9" d="M151.2,88.8h-19.3c0-18-14.7-32.7-32.7-32.7c-18,0-32.7,14.7-32.7,32.7H47.2c0-28.7,23.3-52,52-52
					C127.9,36.7,148.1,65.2,151.2,88.8z"/>
			</g>
		</g>
	</g>
	<g>
		<path class="st9" d="M43.9,124.6c-0.9,0-1.8-0.1-2.7-0.3c-0.9-0.2-1.7-0.6-2.3-1.1c-0.7-0.5-1.2-1.3-1.6-2.2
			c-0.4-1-0.6-2.2-0.6-3.7c0-1.3,0.2-2.5,0.6-3.4c0.4-0.9,0.9-1.7,1.6-2.3s1.5-1,2.3-1.3c0.9-0.3,1.8-0.4,2.8-0.4
			c0.7,0,1.4,0.1,2,0.2c0.7,0.1,1.1,0.2,1.4,0.4l2.5,2l-2,3.3l-3.9-1.8c-0.5,0-0.9,0.1-1.3,0.4c-0.4,0.2-0.7,0.6-1,1.1
			c-0.2,0.5-0.4,1.1-0.4,1.8c0,0.9,0.1,1.6,0.4,2.1c0.3,0.5,0.7,0.8,1.2,1c0.5,0.2,1.1,0.3,1.9,0.3c0.7,0,1.3-0.1,2-0.2
			c0.6-0.1,1.2-0.3,1.6-0.5c0.5-0.2,0.8-0.4,1.1-0.5v4.1c-0.3,0.1-0.7,0.3-1.1,0.5c-0.5,0.2-1.1,0.4-1.8,0.5
			C45.7,124.6,44.9,124.6,43.9,124.6z"/>
		<path class="st9" d="M58.2,124.6c-0.9,0-1.7-0.1-2.6-0.3c-0.9-0.2-1.6-0.6-2.4-1.1c-0.7-0.5-1.3-1.3-1.7-2.2
			c-0.4-1-0.6-2.2-0.6-3.7c0-1.5,0.2-2.7,0.6-3.7c0.4-1,1-1.7,1.7-2.2c0.7-0.5,1.5-0.9,2.4-1.1c0.9-0.2,1.7-0.3,2.6-0.3
			c0.9,0,1.7,0.1,2.6,0.3c0.9,0.2,1.6,0.6,2.4,1.1c0.7,0.5,1.3,1.3,1.7,2.2c0.4,1,0.6,2.2,0.6,3.7c0,1.5-0.2,2.7-0.6,3.7
			c-0.4,1-1,1.7-1.7,2.2c-0.7,0.5-1.5,0.9-2.4,1.1C59.9,124.5,59.1,124.6,58.2,124.6z M58.2,120.6c0.9,0,1.5-0.3,2-0.8
			c0.4-0.5,0.7-1.4,0.7-2.5c0-1.1-0.2-2-0.7-2.5c-0.4-0.5-1.1-0.8-2-0.8c-1.8,0-2.6,1.1-2.6,3.3c0,1.1,0.2,2,0.7,2.5
			C56.6,120.3,57.3,120.6,58.2,120.6z"/>
		<path class="st9" d="M67.8,124.4v-11.1l-0.4-2l0.4-1.2h4.7l4,7.1h0.4l3.3-7.1H85l0.2,1.2l-0.2,1.9v11.2h-4.5l0.1-1.7v-5.7h-0.2
			l-0.8,2.1l-1.5,3.2h-3.2l-2.4-5.4h-0.2v1.6l0.2,5.7H67.8z"/>
		<path class="st9" d="M88.1,124.4v-11.1l-0.4-2l0.4-1.2h4.7l4,7.1h0.4l3.3-7.1h4.8l0.2,1.2l-0.2,1.9v11.2h-4.5l0.1-1.7v-5.7h-0.2
			l-0.8,2.1l-1.5,3.2h-3.2l-2.4-5.4h-0.2v1.6l0.2,5.7H88.1z"/>
		<path class="st9" d="M108.4,124.4l-0.4-1.2l0.4-2v-11.1h10.4l1,0.6l-1.3,3.4l-1.8-0.2h-3.8v1.6h5v3.3h-2.8l-2.2-0.2v1.9h5.6
			l2.4,2.6l-1.2,1.3H108.4z"/>
		<path class="st9" d="M122.5,124.4v-11.1l-0.4-2l0.4-1.2h7.3c1.1,0,2,0.2,2.8,0.5c0.8,0.4,1.4,0.9,1.8,1.7c0.4,0.8,0.6,1.8,0.6,3.1
			c0,1.2-0.2,2.1-0.6,2.9c-0.4,0.8-1,1.3-1.7,1.7l0.3,0.3l1.4,1.9l1.2,1v1.2h-5.4l-2.2-3.7H127v0.4l0.2,2l-0.2,1.2H122.5z
			 M127,116.9h1.2c0.5,0,0.9,0,1.2-0.1c0.3,0,0.6-0.2,0.8-0.4c0.2-0.2,0.3-0.6,0.3-1c0-0.5-0.1-0.9-0.3-1.1
			c-0.2-0.2-0.5-0.3-0.8-0.4c-0.4,0-0.8-0.1-1.2-0.1h-1.3L127,116.9z"/>
		<path class="st9" d="M143.7,124.6c-0.9,0-1.8-0.1-2.7-0.3c-0.9-0.2-1.7-0.6-2.3-1.1c-0.7-0.5-1.2-1.3-1.6-2.2
			c-0.4-1-0.6-2.2-0.6-3.7c0-1.3,0.2-2.5,0.6-3.4c0.4-0.9,0.9-1.7,1.6-2.3c0.7-0.6,1.5-1,2.3-1.3c0.9-0.3,1.8-0.4,2.8-0.4
			c0.7,0,1.4,0.1,2,0.2c0.7,0.1,1.1,0.2,1.4,0.4l2.5,2l-2,3.3l-3.9-1.8c-0.5,0-0.9,0.1-1.3,0.4c-0.4,0.2-0.7,0.6-1,1.1
			c-0.2,0.5-0.4,1.1-0.4,1.8c0,0.9,0.1,1.6,0.4,2.1c0.3,0.5,0.7,0.8,1.2,1c0.5,0.2,1.1,0.3,1.9,0.3c0.7,0,1.3-0.1,2-0.2
			c0.6-0.1,1.2-0.3,1.6-0.5c0.5-0.2,0.8-0.4,1.1-0.5v4.1c-0.3,0.1-0.7,0.3-1.1,0.5c-0.5,0.2-1.1,0.4-1.8,0.5
			C145.5,124.6,144.7,124.6,143.7,124.6z"/>
		<path class="st9" d="M151.8,124.4l-0.4-1.2l0.4-2v-11.1h10.4l1,0.6l-1.3,3.4l-1.8-0.2h-3.8v1.6h5v3.3h-2.8l-2.2-0.2v1.9h5.6
			l2.4,2.6l-1.2,1.3H151.8z"/>
	</g>
	<g>
		<path class="st9" d="M43.3,107.8V96.7l-0.4-2l0.4-1.2h4.7l4,7.1h0.4l3.3-7.1h4.8l0.2,1.2l-0.2,1.9v11.2h-4.5l0.1-1.7v-5.7h-0.2
			l-0.8,2.1l-1.5,3.2h-3.2l-2.4-5.4h-0.2v1.6l0.2,5.7H43.3z"/>
		<path class="st9" d="M62.2,107.8l1-3.4v-2.6l1.5-0.6l2.8-7.7h6.1l3.5,9.1l1.6,2.9v2.4h-4.4l-1-3h-5.5l-0.9,3H62.2z M69.1,101.2h3
			l-1.3-4h-0.4L69.1,101.2z"/>
		<path class="st9" d="M80.4,107.8V96.7l-0.4-2l0.4-1.2h6.9c1,0,1.9,0.1,2.8,0.3c0.9,0.2,1.7,0.5,2.4,1s1.3,1.2,1.7,2.1
			c0.4,0.9,0.6,2.1,0.6,3.6c0,1.5-0.2,2.7-0.6,3.7c-0.4,1-1,1.7-1.7,2.2c-0.7,0.5-1.5,0.9-2.4,1.1c-0.9,0.2-1.8,0.3-2.8,0.3H80.4z
			 M84.9,103.9h1.5c0.8,0,1.5-0.1,2-0.3c0.5-0.2,1-0.5,1.2-1c0.3-0.5,0.4-1.2,0.4-2.2c0-1-0.1-1.7-0.4-2.1c-0.3-0.5-0.7-0.7-1.3-0.9
			c-0.5-0.1-1.2-0.2-2-0.2h-1.5V103.9z"/>
		<path class="st9" d="M97.3,107.8l-0.4-1.2l0.4-2V93.4h10.4l1,0.6l-1.3,3.4l-1.8-0.2h-3.8v1.6h5v3.3H104l-2.2-0.2v1.9h5.6l2.4,2.6
			l-1.2,1.3H97.3z"/>
		<path class="st9" d="M116.3,107.8V96.7l-0.4-2.1l0.4-1.2h10.4l1,0.6l-1.3,3.4l-1.8-0.2h-4l0.2,1.6h5v3.3h-2.9l-2.2-0.2v2.5l0.2,2
			l-0.2,1.2H116.3z"/>
		<path class="st9" d="M135.3,108c-0.9,0-1.7-0.1-2.6-0.3c-0.9-0.2-1.6-0.6-2.4-1.1c-0.7-0.5-1.3-1.3-1.7-2.2
			c-0.4-1-0.6-2.2-0.6-3.7c0-1.5,0.2-2.7,0.6-3.7c0.4-1,1-1.7,1.7-2.2c0.7-0.5,1.5-0.9,2.4-1.1c0.9-0.2,1.7-0.3,2.6-0.3
			c0.9,0,1.7,0.1,2.6,0.3c0.9,0.2,1.6,0.6,2.4,1.1c0.7,0.5,1.3,1.3,1.7,2.2c0.4,1,0.6,2.2,0.6,3.7c0,1.5-0.2,2.7-0.6,3.7
			c-0.4,1-1,1.7-1.7,2.2c-0.7,0.5-1.5,0.9-2.4,1.1C137,107.8,136.2,108,135.3,108z M135.3,103.9c0.9,0,1.5-0.3,2-0.8
			s0.7-1.4,0.7-2.5c0-1.1-0.2-2-0.7-2.5s-1.1-0.8-2-0.8c-1.8,0-2.6,1.1-2.6,3.3c0,1.1,0.2,2,0.7,2.5
			C133.8,103.6,134.4,103.9,135.3,103.9z"/>
		<path class="st9" d="M144.9,107.8V96.7l-0.4-2l0.4-1.2h7.3c1.1,0,2,0.2,2.8,0.5c0.8,0.4,1.4,0.9,1.8,1.7c0.4,0.8,0.6,1.8,0.6,3.1
			c0,1.2-0.2,2.1-0.6,2.9c-0.4,0.8-1,1.3-1.7,1.7l0.3,0.3l1.4,1.9l1.2,1v1.2h-5.4l-2.2-3.7h-1.1v0.4l0.2,2l-0.2,1.2H144.9z
			 M149.4,100.3h1.2c0.5,0,0.9,0,1.2-0.1c0.3,0,0.6-0.2,0.8-0.4c0.2-0.2,0.3-0.6,0.3-1c0-0.5-0.1-0.9-0.3-1.1
			c-0.2-0.2-0.5-0.3-0.8-0.4c-0.4,0-0.8-0.1-1.2-0.1h-1.3L149.4,100.3z"/>
	</g>
</g>
</svg>
